<svg xmlns="http://www.w3.org/2000/svg" id="Layer_3" version="1.1" viewBox="110.45 497.71 314.91 152.88">
  <!-- Generator: Adobe Illustrator 29.1.0, SVG Export Plug-In . SVG Version: 2.1.0 Build 142)  -->
  <defs>
    <style>
      .st0 {
        fill: #fff;
      }
    </style>
  </defs>
  <g>
    <path class="st0" d="M393.03,558.57c1.96-.12,1.26-.45,1.56-.56-1.71.11-2.03.35-1.99.45.05.11.48.16.44.11Z"/>
    <polygon class="st0" points="364.9 563.62 365.38 563.38 361.29 564.38 364.9 563.62"/>
    <path class="st0" d="M338.53,566.95c2.58.44,9.56-1.19,14.29-1.55l.79.06,2.04-.84c-5.69.85-13.07,2.1-17.12,2.33Z"/>
    <path class="st0" d="M324.29,566.84c.9.19-3.03.53,3.29-.23-.32,0-.41,0-.6-.01-.57.06-1.35.14-2.69.24Z"/>
    <path class="st0" d="M326.98,566.6c2.78-.29-1.84-.06,0,0h0Z"/>
    <path class="st0" d="M314.12,567.89l3.66-.55c-.78-.1-4.06.13-2.85-.09-3.76.44-2.97.54-.8.64Z"/>
    <path class="st0" d="M310.68,568.7l1.9-.26c-.34-.04-.85-.02-1.9.26Z"/>
    <path class="st0" d="M316.6,567.89l-4.02.55c.54.07.62.3,1.85-.23-.31.24.47-.03,2.17-.32Z"/>
    <path class="st0" d="M318.9,567.81c2.07-.02,4.74-.17,1.08.41,7.01-.74,5.93-1.13-1.08-.41Z"/>
    <path class="st0" d="M337.26,567.83l2.77-.09,2.35-.51c-1.18.26-5.32.4-5.13.6Z"/>
    <path class="st0" d="M291.19,569.39c-.22.17,1.27.3,1.56.47l2.7-.4c-1.4.01-4.06.13-4.26-.08Z"/>
    <path class="st0" d="M292.74,569.86l-4.05.59c3.63-.27,4.29-.44,4.05-.59Z"/>
    <polygon class="st0" points="310.09 569.54 316.72 568.45 308.8 569.65 310.09 569.54"/>
    <polygon class="st0" points="275.66 570.53 277.94 570.02 273.88 570.83 275.66 570.53"/>
    <path class="st0" d="M265.42,571.17c1.68-.36-2.34-.39-.56-.65-2.77.17-5.12.48-7.25.73,2.26-.16,4.67-.19,7.81-.09Z"/>
    <path class="st0" d="M254.04,571.6c1.13-.06,2.3-.2,3.57-.35-1.2.08-2.38.19-3.57.35Z"/>
    <path class="st0" d="M281.76,570.9c-.32-.07-.94-.26-3.23-.2l1.63.31c.49-.03,1.04-.07,1.6-.11Z"/>
    <path class="st0" d="M280.22,571.02h-.06c-1.73.1-2.94.18-3.45.21.44-.03,1.5-.09,3.51-.21Z"/>
    <path class="st0" d="M282.16,570.87c-.15.01-.26.02-.4.03.16.03.25.04.4-.03Z"/>
    <path class="st0" d="M299.4,570.02c-2.37.43-7.33,1.09-2.48,1.06,1.69-.43-1.08-.41,2.48-1.06Z"/>
    <path class="st0" d="M284.19,571.26l4.33-.23c-.09-.11-.88-.21.29-.42l-4.62.65Z"/>
    <polygon class="st0" points="282.08 571.55 284.19 571.26 282.59 571.34 282.08 571.55"/>
    <path class="st0" d="M261.38,571.9c-1.85.24-3.88.29-6.17.33,2.45.08,4.99.07,7.41-.01.34-.15,1.39-.42-1.24-.32Z"/>
    <path class="st0" d="M270.52,571.61c-.13.01-.29.03-.41.05.26.02.46.02.41-.05Z"/>
    <path class="st0" d="M232.32,572.73c.13.02.24.04.37.06.03-.03.05-.05.08-.08l-.45.02Z"/>
    <path class="st0" d="M263.04,572.29c1.85.02,2.96-.14,4-.32-1.38.11-2.85.2-4.42.26-.15.07-.18.11.42.06Z"/>
    <path class="st0" d="M247.66,571.75c.99.08,2.11.16,3.29.26-.96-.15-2.94-.38-3.29-.26Z"/>
    <path class="st0" d="M269.48,571.58c.09-.01.18-.02.28-.03-.61-.06-.53-.02-.28.03Z"/>
    <path class="st0" d="M269.48,571.58c-.95.11-1.69.26-2.44.39,1.12-.09,2.17-.19,3.07-.3-.23-.02-.46-.05-.63-.08Z"/>
    <path class="st0" d="M225.56,575.82c.31-.4,5.19-1.02,9.44-.82,4.15-.5,1.36-1.68-2.31-2.21-.12.18-.11.34-4.37.8,1.5.14,9.52,0,5.93.55-5.66.5-4.65.11-7.41.03,2.36.4-7.17,1.03-5.92,1.68l4.97-.44c.1.11-1.7.37-.31.41Z"/>
    <path class="st0" d="M240.88,572.44l1.78-.11c-2.03,0-3.49-.11-6.16-.29-2.94.34-3.53.52-3.73.66,2.89-.14,5.8-.27,8.72-.35l-.61.08Z"/>
    <path class="st0" d="M250.68,572.26c-1.41.39-5.68.61-3.06,1.06,5.22-.01,3.65-.31,6.73-.49-8.27.02,2.38-.2-3.6-.52,1.64-.05,3.08-.06,4.47-.08-1.49-.05-2.91-.13-4.26-.23.08.01.13.02.19.03h.04s0,0,0,0c.35.06.47.09.07.06-.03,0-.13,0-.17,0-.06.06-.22.11-.39.16-2.46-.12-.39-.12.39-.16.03-.02.09-.04.1-.06,0,0-.02,0-.03,0-2.84.03-5.67.14-8.48.3,1.8-.02,4.04-.04,8.02-.07Z"/>
    <path class="st0" d="M292.54,572.37c-.26-.02-.25-.05-.27-.08-.54.1-.74.15.27.08Z"/>
    <path class="st0" d="M289.09,572.39c.6-.11,1.09-.32,3.07-.44,1.72-.01,0,.21.11.34,1.18-.21,4.13-.65.39-.55l-.59.11c-3.36.14-7.72-.08-7.14-.19,1.01.31,1.9.53,4.16.73Z"/>
    <path class="st0" d="M269.59,572.91c-2.31.19-4.62.37-6.93.52l3.55.23-.19-.22c3.95-.1,3.08-.34,3.57-.54Z"/>
    <polygon class="st0" points="231.51 572.56 232.41 572.06 228.43 572.91 231.51 572.56"/>
    <polygon class="st0" points="222.51 573.04 222.83 572.63 220.48 572.94 222.51 573.04"/>
    <path class="st0" d="M225.01,590.15l-2.03-.06c.96.04,1.58.06,2.03.06Z"/>
    <path class="st0" d="M239.99,590.94l.37-.19c-.69.1-.98.18-.37.19Z"/>
    <path class="st0" d="M332.19,579.47c2.99.29,6.34.75,5.97.32l-.93-.41c-2.08.14-3.68.14-5.04.08Z"/>
    <path class="st0" d="M361.09,579.84c.29.02.58.03.88.05.71-.22,1.37-.42,1.96-.61-.86.17-1.83.36-2.84.56Z"/>
    <path class="st0" d="M359.15,581.82l-3.98.05c.89.02,2.2.02,3.98-.05Z"/>
    <path class="st0" d="M250.9,577.62l2.37-.53c-3.74.14-2.09.3-2.37.53Z"/>
    <path class="st0" d="M202.47,579.48c2.56.25,4.59.4,6.38.5-3.08-.38-5.55-.84-6.38-.5Z"/>
    <path class="st0" d="M231.16,586.02c-1.24.01-1.77.04-1.74.14,1.27.03,2-.03,1.74-.14Z"/>
    <path class="st0" d="M216.26,580.31c-.45-.06-.89-.11-1.35-.17-1.88-.02-3.77-.04-6.06-.17,2.27.28,4.88.51,7.41.33Z"/>
    <path class="st0" d="M290.06,576.43c-.21-.02-.47-.05-.66-.07-.07.06.23.07.66.07Z"/>
    <path class="st0" d="M204.75,568.09c.85-.02,2.21-.04,3.52-.01-.64-.05-1.7-.05-3.52.01Z"/>
    <path class="st0" d="M186.18,572.97c1.92-.03.3-.05,0,0h0Z"/>
    <path class="st0" d="M195.52,574.69c-.41.05-.72.11-.77.21.16-.1.43-.17.77-.21Z"/>
    <path class="st0" d="M235.5,578.25c.06,0,.1,0,.17,0-.57-.1-.47-.08-.17,0Z"/>
    <path class="st0" d="M189.07,573.17c-.72-.05-1.55-.1-2.46-.13.4.03,1.14.08,2.46.13Z"/>
    <path class="st0" d="M188.68,572.96c.66.02,1.18.03,1.68.04.24-.07.03-.12-1.68-.04Z"/>
    <path class="st0" d="M183.5,572.99c1.1,0,2.12.01,3.11.05-.38-.03-.54-.05-.43-.07-.56,0-1.36.01-2.68.02Z"/>
    <path class="st0" d="M387.26,575.66c.13.02.27.04.41.06,1.95-.08,1.1-.1-.41-.06Z"/>
    <path class="st0" d="M381.94,573.01c-.09.01-.14.02-.22.03.09,0,.2,0,.28,0l-.07-.03Z"/>
    <path class="st0" d="M388.8,572.31c-2.9.71-4.57.73-6.79.73l2.34,1.13,4.45-1.86Z"/>
    <path class="st0" d="M205.47,581.95l-.61.02c-.21,0-.26,0-.44-.01l-1.07-.08c-.8-.07-1.69-.15-2.72-.11.92-.17,1.71-.23,2.4-.29.67-.05,1.26-.1,1.57-.17,1.1-.2,1.99-.36,2.58-.46,1.2-.23,1.11-.3-1.18-.32-.06.17-.36.32-.84.47-.12.03-.25.07-.39.11-.17.04-.18.05-.28.08-.21.05-.51.09-.89.11-.75.06-1.75.05-3.04.19-.66.09-1.39.2-2.28.53-.86.31-2.02.99-2.78,2.17l-1.51,2.36,2.11,1.72c1.66,1.35,3.57,1.85,5.06,2.02,1.54.18,2.84.11,3.93.01,2.17-.23,3.45-.53,3.6-.88.91.05,2.03.16,3.05.26-.89-.02-1.04.06-1.92.05,3.03.31,4.15.13,5.52-.13,1.36-.24,2.96-.55,6.91-.15,2.75.32,4.66.7,2.76.69,2.04.07,4.19.14,6.28.15,1.83.12,1.37.34-.45.21,3.2.16,6.4.22,9.6.2l-.07.04c1.37-.2,4.46-.55,5.96-.74,2.43.14-1.21.17-.59.33,1.76-.14,3.52-.31,5.27-.49,2.16.26-2.19.81-5.86.81,2.49.63,3.59.51,5.39.28,1.81-.22,4.32-.55,9.65-.49l-4.97.47c3.26.59,7.13.07,12.77.12-1.35-.12-11.33-.41-5.64-1.14,1.61-.01,3.74-.11,6.78-.63.07.48,3.05.12,6.79-.2l-.2.66c4.03-.51,3.68-.81,6.04-1.28,4.52-.27,5.49.06,6.58.4,7.23-.59-5.05-.31,3.49-1.26,6.02-.33,10.22-1,17.36-2.07,4.22-.19-.7.46.83.5l3.68-.87c.91-.08.63.11.49.2,3.11-.49.21-.67,5.1-1.3,1.26-.83,10.19.17,16.22-1.03,1.52.08-.7.44-.22.66,8.33-1.08,7.15-.85,13.99-1.94l5.91.12c-2.19-.13-1.9-.41-.46-.74,1.44-.36,4-.83,6.39-1.29-1.55-.09-2.87-.18-3.75-.2,2.55-.33,5.1-.68,7.64-1.06.94.01.19.31-1.04.7.52-.11,1.01-.21,1.39-.29,2.77-.05,1.39.47-.55,1.02-.95-.04-1.89-.08-2.81-.12-1.86.57-3.61,1.15-3.18,1.49.5-.12,1.46-.26,2.51-.4-.49.15-.8.28-.56.32.27.04,1.06-.17,2.3-.46l1.82.53.4-.32,10.1-.65c3.54-.8,6.86-1.55,10.69-2.41,3.84-.8,8.21-1.66,13.91-2.24-2.79.71-.54.89-.66,1.52-3.12-.43-8.77,1.09-14.66,1.62,3.08-.27,2.44.1,1.67.28,3.48-.59,6.96-1.15,10.45-1.68-.17.53,2.23.15,4.97.24-1.06-.45.88-.72,3.65-.91,2.77-.18,6.39-.38,8.56-.8.32.27-.73.86-6.06,1.06,2.95.23,4.87-.23,6.72-.77.93-.27,1.85-.58,2.9-.86,1.08-.3,2.27-.57,3.8-1.11-1.32.62-2.05.72-2.54,1.04.55-.2,1.25-.44,2.01-.79.75-.35,1.59-.77,2.36-1.51l2.2-2.14h-3.09c-2.79.02-5.4-.15-4.3-.34h1.28c-2.13-.03-4.83-.06-7.72.04-2.89.09-6,.4-8.78.85-2.79.43-5.29.91-7.19,1.27-1.89.37-3.18.64-3.48.88-.09-.1,1.01-1.12,1.48-1.34-2.38.74-4.9,1.3-7.41,1.93l-7.52,1.83c1.3-.8-3.92-2.27,3.11-3.05-2.03,0-4.54,0-8.8.47,1.39.04,3.5.89,1.61,1.05-5.22-.57-3.62-.26-10.04-.68,2.08.06-.17,1.32-3.45,1.41.5-.19-.32-1.12.87-1.29l-8.11,1.44c2.03-.28.32-.97-1.51-1.22.85.19-7.05.23-9.22.41l3.47.15c-9.21.13-9.05,1.88-18.19,2.08,1.1-.26,2.69-1.5-1.96-1.52-2.11.64-9.36,3.02-17.44,3.65l-1.56-.29-6.2.51c3.85-.95,14.65-3.02,20.55-3.88-3.45-.17-.97-.36-6.13-.21-1.83-.27,2.8-.53,4.32-.59l-12.02.09c.55.66-9.18.88-8.71,1.43l13.04-.99c.55.66-7.51,2.08-16.03,2.15-2.17-.22,1.6-1.23,1.41-1.45-1.1.26-8.08.62-8.86.47l3.61-.44c-4.75-.15-7.72,1.06-13.43.52-1.97,0-5.88-.77-6.22-.37,3.22.72,3.89,3.08,1.75,3.69-.69-.04-10.35-.58-12.6-.96-3.24-.57,4.85-1.47,2.09-1.97-.12.18-1.9.43-2.65.5-2.07-.14.85-.57-3.63-.46-.75.69-9.12-.04-2.12.58-4.39.2-4.66-.12-9.82-.13,1.64.46-4.64,1.48-9.05,1.58.26-.17-.72-.41-1.2-.53-9-.25-13.81-.76-22.2-1.16-.77-.2-4.81-.58-3.07-.8-1.21.07-2.33.25-4.92.17-4.99-.77,5.78.13,1.99-.72-.34.38-6.73.29-10.43.47,1.12.62,8.52.34,12.23.27-.02.86-6.48,1.41-15.24,1.67-6.96.14-3.01-.57-4.23-.47-3.34-.1-5.68-.35-7.52-.42-1.83-.09-3.16-.06-4.39,0-1.22.06-2.37.12-3.86.2-.77.05-1.84.03-2.92-.14-1.1-.16-2.26-.48-3.48-.75-.54-.16-.92-.27-1.17-.37l.91-2.69c.71.73.08.71-.45.71l-.39,1.15c.28-.12.47-.23.2-.37,1.4.08,2.62.37,3.75.59,1.13.23,2.17.38,3.17.42,1.94.09,3.63.32,5.53.5-1.56-.24-3.11-.44-4.68-.53,1.79-.21,5.6.02,7.63.43-.98-.23-3.08-.59-5.86-.77-1.39-.13-2.95.01-4.57-.2-1.62-.2-3.32-.69-5.12-.83l-.62-.05.53.32c1.27.78,2.77,1.15,4.25,1.29,1.48.14,2.96.11,4.39.05,1.43-.07,2.81-.17,4.11-.2,1.29-.03,2.54.05,3.67.09,1.8-.18,4.89-.36,3.43-.58l-3.2.07c-2.94-.43,6.02-.6,1.97-.8,4.29-.3,9.1-.78,15.14-.53l1.13.61c-.13-.18-3.95-.37-5.65-.18,2.52-.27,9.26.83,12.02.03l-4.23-.43c4.29-.32,9.69-.93,14.95-.78-2.42-.57-1.2.09-4.99-.62,3.3.88-13.7-.04-8.4.89-3.9-.82-6.76-.35-11.86-1.05.16.2,1.81.39-2.69.29-.2.06-.68.13-.99.18-.14,0-.19,0-.3-.02.09,0,.16.02.25.02-.19.03-.21.04.09,0,1.07.09,1.94.2,2.29.31-2.24.47-9.37.44-11.81.69-1.42-.01-1.11-.06-.67-.16.45-.09,1.09-.19.3-.28-1.29.16-2.48.39-3.66.59-.2-.21-1.94-.28-2.81-.44-.44-.08-.68-.16-.45-.23.23-.07.91-.13,2.41-.29-1.81.11-3.55.13-5.05-.12-.79-.21-1.55-.52-2.04-.89l-1.73,5.15c1.06.13,2.24.42,3.61.67,1.34.26,2.89.34,3.96.24,2.42.04,6.42-.1,4.15.03,2.84.15,5.8.49,8.88.62l.08.12c1.12.09,2.34.11,3.46.1,1.1-.01,2.21-.02,3.34-.03,2.24-.02,4.52-.04,6.84-.02,4.64.04,9.44.24,14.41.88,2.94.02,6.01.04,10.95.33l.95.42c3.8-.01,11.39.67,13.03.27,4.08,1.14,18.41.34,25.07.43l.25-.51c4.59-.02,8.98-.23,14.66-.54l-.36-.44c4.89-.46,12.61.07,20.35-.15-.52.18-2.49.18-3.88.11,9.28.81,19.52-1.16,27.93-.65,2.09-.22,3.61-.2,5.08-.13-.19,0-.37.02-.52.04.21,0,.53-.01.86-.02.93.05,1.88.1,2.91.16-.88-.08-1.72-.15-2.45-.17,1.61-.06,4.06-.18,6.46-.37l1.04.45c.19-.01.35-.02.55-.03,2.36.11,1.89-.29.62-.61,1.21-.12,2.31-.24,3.16-.39,1.94.72,6.29-.47,8.92.27,1.6-.45,12.05-.76,13.29-1.67.09.11.8.13-.5.19,2.68-.02,5.35-.03,7.74-.39l1.16.56,5.8-1.1c3.56.2,5.05.33,1.55.99,4.23-.58,5.95-.74,7.52-.9,1.56-.18,2.95-.24,6.6-.94l-.32.43c2.64-.26,6.66-1.41,8.24-1.3,1.61,0,4.44-.34,8.01-.49,3.59-.16,7.98-.1,12.69-.13l-1.19-2.84c-.37.36-1.1.75-1.88,1.03-.8.29-1.64.5-2.55.65-1.84.33-3.73.53-5.61.65-3.77.24-7.5.2-10.89.25,1.49.51-.25.45-2.47.47-2.19.03-4.79.09-5.04.57-.89-.19-2.97-.13-.6-.61-7.54,1.06-11.39.82-16.5,2.16-.89-.18,1.56-.58.78-.66-.6.13-2.36.51-3.16.43-.78-.08,1.07-.35,2.25-.61-7.67.91-8.35,1.82-8.83,2.67-3.93.03-5.86.26-8.63,1.02-1.37-.15-3.64-.23,1.1-.73-.67.04-2.02.13-3.68.24-1.67.07-3.65.15-5.56.23-3.83.19-7.35.47-7.47.8-.86-.11-3.78.19-4.49.31-6.07.37-6.61.35-12.55.88l1.66-.03c-2.29.96-4.92.55-9.73,1.08l.13-.09c-11.01.5-4.71.72-15.58,1.13l.63.42c-.92,1.12-9.64.32-15.88,1.32l2.29.05c-3.4.73-9.7-.57-13.17-.42-.76-.03,1.18-.24,2.22-.39-9.09.12-1.12.72-7.84,1.4-1.27-.24,1.53-.98-3-.69-1.14-.05-4.39.47-8.13.94-3.74.47-7.99.84-11.07.61,1.36.22,2.72.44-.39.73-4.8.26-12.86-.91-17.17-.43-.6-.12-.82-.2-.84-.27-1.8-.02-4.79-.22-7.62-.31-2.82-.1-5.48-.07-6.6.11-.55-.29-1.55-.49-2.83-.59-1.28-.09-2.83-.15-4.61,0-1.7.15-3.39.39-4.97.4-1.57.02-2.96-.28-3.78-.92l.27,1.83c.11-.2.45-.44.96-.55.48-.11,1-.14,1.44-.12.88.03,1.45.2,1.43.46.47,0,.95,0,1.51-.03.25,0,.63-.05.83-.07l.7-.08,2.81-.34,5.62-.67-.28.19c7.19-.71,9.7-1.35,12.17-2,1.66-.08.47.19.35.29,5.22-.43,8.1-.55,10.75-.82,2.66-.25,5.11-.59,9.5-1.17l.94.46c2.37-.43,15.28.32,25.63-.92-.1.06-.31.17-1.12.29,11.57-1.32,27.86.07,32.05-1.89l7.67-.72c-9.94.22,1.45-.84-2.65-.99,3.9-.24,10.12.18,5.33.45l-.75-.06c-1.73,1.01,12.37-.13,12.13.51,9.77-.53,19.36-.52,28.86-.33,4.75.09,9.47.19,14.14.28,2.34.03,4.68.06,7,.08,2.33,0,4.62-.03,6.86.02l-2.07-.75c2.13,0,4.17.1,6.3.24,1.68.26,2.18.69-2.31.42,2.3.54,7.64.05,7.76-.11,8.89.75-3.54.67-.8.83l3.71.14-.83-.13c3.03-.14,3.32-.45,8.79-.13,1.74.15,2.13.32,2.3.43.17.11.08.18.74.27-.01.06.43.1,1.99.26,1.27.19,2.52.42,3.71.74,1.17.32,2.34.72,3.17,1.23-.58-.56-1.42-1.1-2.31-1.56,1.1.22,2.16.63,2.83,1.02l.04-2.52c-.13.07-.22.1-.38.11-.16,0-.32-.01-.39,0-.07.01-.03.07.11.16.15.08.39.22.7.23-.22,0-.47-.05-.97-.24-.5-.17-1.14-.55-2.29-.74-2.42-.35-5.18-.04-8.01-.17-2.88-.09-5.98-.39-8.92-.74-2.96-.35-5.74-.68-7.95-.94-2.23-.25-3.93-.38-4.62-.5-5.02.08-9.94-.27-16.04-.74,1.51.22,2.37.93-2.88.5,2.01-1.21-9.6-1.23-13.8-2.44,3.77.84-15-.69-9.07.55-4.39-.34-.24-.52-3.57-1-5.25,0-11.03-.32-17.12-.6-6.11-.29-12.48-.48-18.94-.56-.21.17,1.95.49-.83.69l-6.8-1.07c-2.55,0-2.38.95-7.02.18.65.17,1.63.43-.09.42-12.64-.88-25.58-1.33-38.58-1.87-12.98-.43-25.93-1.73-38.9-2.86,3.51.44,1.16.4-1.52.36,1.74.11-.05.43.29.68-3.61-.27-7.19-.45-10.79-.68-1.97.66-11.57.05-12.7.68l3.42-.12c-4.55.75,6.35,1.66,5.68,2.61,2.54-.43,5.89-.11,9.65.15,3.77.23,7.87.57,12.05.15,1.82.28-1.58.24-.61.5,2.12-.32,4.67-.28,9.37.2l-.54.07c6.63.37,11.36.78,16.32,1.19,4.97.4,10.1.79,17.56,1.28l-1.08-.53c3.2.21,3.87.39,5.37.58,3.71-.54-9.01-.46-5.62-1.1,4.21,1.18,22.62,1.05,25.46,2.23,4.94.19-1.43-.6,3.51-.41l1.3.34,1.26-.34c3.24.17,4.86.59,4.97.85-.79-.05-2.24,0-3.08,0,4.19.5,11.86.23,13.3.37l-4.75-.3c6.75.07,14.27.14,21.65.29,7.4.16,14.74.44,21.24.48l-.97-.28c9.94.13,7.93.67,18.82,1.17l-.4.03c2.19-.08,5.11,0,8.09.23-2.77.07,5.14.86,1.51.9,10.78.3,5.34.02,12.5-.32l1.61.48c2.44-.15,2.63-.38,8.04.16-4.46-.21,3.37.97-1.63.8,5.58,1.08,9.9,1.46,13.46,1.48,1.78.03,3.36-.02,4.86-.03,1.47-.02,2.8.02,4,.33,2.36-.39.26-.75-2.52-.64-2.8.13-5.96,0-4.44-.05-1.25-.22-.14-.34,1.73-.47,1.89-.12,4.47-.44,6.19-.26.13.01.26.02.38.04.56.07,1.11.37,1.8.66.35.14.75.29,1.26.35.5.06,1.12,0,1.68-.26l1.59-.75-1.56-1.24c-2.16-1.72-5.37-3-10.82-3.54.94.1,1.01.03,1.95.15-1.76-.36-3.52-.4-5.29-.4-1.79-.02-3.67-.07-5.76-.39-2.41.5-5.47-.32-6.21.44l8.44.25c-2.4-.02-4.73.14-7.44.21-1.36.03-2.81.04-4.41-.02-1.59-.05-3.37-.2-5.36-.33.61-.17,3.02-.29,4.63-.31-2.3-.38-4.52-.05-6.91-.27.34-.39,2.93-.49,6.14-.31,3.12.14,6.79.33,9.37.16-2.45-.46-9.72.07-7.09-.65-1.85.46-4.2.25-6.83.18-2.64-.08-5.49-.11-8.6.28l.41-.47c-.98.07-3.02.29-4.83.27l3.28-.6c-5.03.51-9.7-.52-14.54-.27,10.13.06,2.27.59,6.55.97-6.24.27-8.04-.05-10.02-.42-1.98-.36-4.15-.81-11.18-.63,1.91-.1,7.14.24,4.17.47-2.67-.09-6.2-.22-7.85-.44-9.32.33,1.44.45-2.52.84-3.18-.49-4.58.38-8.62.74l-.05-.48c-10.54.13-2.75,1.13-12.25,1.12l3.99-.82-4.94.36,1-.59c-5.37.6-7.05.55-12.33.59,1.24.3-.66.9-5.33,1.09-3.2-.16,1.77-.53-4.86-.2,1.48-.36,3.11-.81,6.01-.47.29-.17,1.46-.36,1.76-.52-3.45-.2-8.63.25-11.04.36.93-.02,2.03-.04,2.6,0l-9.58,1.09c-1.52-.11-.33-.31.85-.51-1.95.14-3.28.43-6.14.63.72-.43.52-.83,4.57-1.22l-9.15.93c-.64-.13-4.7-.2-3.53-.41-5.02.07-12.33,1.3-19.08,1.25-.35.09-1.05.19-2.48.3-6.33.19-12.02-.04-19.53,1.26l-4.36-.22c-5.81.81,5.82.24-3.85,1.59-6.84.99-2.64-.31-5.07-.23-1.69.37-3.99.9-6.68,1.35-.67.11-1.36.22-2.08.32-.36.05-.72.1-1.08.14-.35.04-.8.1-1,.11-.58.03-1.36,0-2.18-.04-.83-.02-1.74-.06-2.84.1,1.42-.36,2.46-.32,3.42-.33.48,0,.91.01,1.3,0,.2,0,.36-.02.5-.03.23-.03.47-.06.71-.09ZM262.21,589.9c-1.4.2-4.18.69-5.23.46,1.57-.64,2.82-.46,5.23-.46ZM371.79,579.67c-1.02.27-2.63.37-4.47.38,1.31-.18,2.8-.32,4.47-.38ZM167.1,577.16c.05,0,.09,0,.13,0,1.37.32,1.92.48,1.75.43-.15-.03-.96-.25-1.89-.43ZM171.73,573.93c.59-.05.55-.11.31-.19-.4.11-1.77.1-3-.28.31.2.93.51,2.69.47ZM407.43,580.04l-1.2-.25c2.77.15,1.98.21,1.2.25Z"/>
    <path class="st0" d="M359.42,581.58c-.4-.05-.52-.13-.62-.21-.54.13-.55.22.62.21Z"/>
    <path class="st0" d="M250.47,577.72h.22c.12-.04.18-.07.22-.1l-.44.1Z"/>
    <path class="st0" d="M261.38,576.47c1.34.06,2.08.14,2.58.23.07-.12-.54-.21-2.58-.23Z"/>
    <path class="st0" d="M206.06,572.76l-4.16.12c2.01-.02,2.73.08,3.75.16-.09-.11-.89-.28.42-.28Z"/>
    <path class="st0" d="M242.15,574.7c.61-.08,1.29-.04,1.89-.12l-.17-.22c-2.59.08-4.39.35-1.71.34Z"/>
    <path class="st0" d="M209.91,574.37c.33.4,2.95.27,5.85.19-.17,0-.34,0-.51,0,.86-.57-2.24-.38-5.34-.19Z"/>
    <path class="st0" d="M216.43,574.54c.89-.02,1.8-.05,2.68-.04.33-.24-1.09-.02-2.68.04Z"/>
    <path class="st0" d="M179.84,573.31c1.43.09.88-.52,1.67-.36.39-.13,0-.15-.67-.12-.62.02-1.78.13-2.56.28-.8.14-1.38.29-1.29.34.1.07.78,0,2.85-.14Z"/>
    <polygon class="st0" points="212.27 575.7 211.22 575.2 209.59 575.61 212.27 575.7"/>
    <path class="st0" d="M189.25,575.33l4.66.14c-.07-.08.52-.13,1.25-.17-2.87-.02-6.02-.12-5.91.03Z"/>
    <path class="st0" d="M195.16,575.3c1.49.01,2.92,0,3.75-.08-.81,0-2.55.02-3.75.08Z"/>
    <polygon class="st0" points="205.9 575.85 204.52 575.75 201.24 575.71 205.9 575.85"/>
    <path class="st0" d="M193.24,577.36l5.08-.05c.52-.16-.86-.3-2.75-.27-1.22.1-3.1.14-2.33.32Z"/>
    <path class="st0" d="M178,574.94c1.38.22,1.46.35,2.21.6l.22-.6h-2.43Z"/>
    <path class="st0" d="M192.71,575.83c.51-.17,7.41-.37.94-.44-.52.16-5.63.26-.94.44Z"/>
    <polygon class="st0" points="269.25 578.09 267.96 578.11 268.16 579.13 269.25 578.09"/>
    <path class="st0" d="M336.65,574.15c-6.02-.07-1.41.67-6.85.52-1.41.28,4.45.12,3.01.37,3.62-.36,5.53-.28,3.85-.89Z"/>
    <path class="st0" d="M332.81,575.04c-.58.06-1.2.12-1.85.21,1.05-.09,1.54-.16,1.85-.21Z"/>
    <polygon class="st0" points="190.55 567.55 186.67 567.34 189.17 567.68 190.55 567.55"/>
    <path class="st0" d="M183.1,568.3l-.91-.65-2.33.59c.88-.03,2.58-.09,3.24.06Z"/>
    <path class="st0" d="M273.06,590.39l.28-.18c-.61-.12-1.52-.06-3.33.06l3.05.12Z"/>
    <polygon class="st0" points="220.14 590.4 221.03 590.48 219.41 589.78 220.14 590.4"/>
    <path class="st0" d="M218.71,579.2c-1.79.18-3.87.54-5.67.72,3.88-.54,6.24-.05,5.67-.72Z"/>
  </g>
  <g>
    <path class="st0" d="M233.8,505.02c1.36.12.95-.29,1.18-.35-1.31-.14-1.47.12-1.45.22.03.11.3.19.27.14Z"/>
    <polygon class="st0" points="222.36 511.6 222.48 511.34 221.06 512.57 222.36 511.6"/>
    <path class="st0" d="M212.41,517.17c1.28.14,3.5-2.08,5.38-2.89l.37-.03.51-.96c-2.12,1.32-4.67,3.25-6.27,3.87Z"/>
    <path class="st0" d="M206.35,518.48c.46.08-1.07.79,1.3-.54-.14.03-.18.03-.26.05-.22.11-.52.26-1.04.49Z"/>
    <path class="st0" d="M207.39,517.99c1.06-.54-.8.14,0,0h0Z"/>
    <path class="st0" d="M202.51,520.54l1.31-.9c-.37,0-1.64.57-1.23.23-1.39.82-1.02.82-.08.67Z"/>
    <path class="st0" d="M201.39,521.65l.69-.44c-.16,0-.36.07-.69.44Z"/>
    <path class="st0" d="M203.54,520.26l-1.46.95c.25,0,.38.2.68-.42-.04.25.18-.08.78-.53Z"/>
    <path class="st0" d="M204.47,519.93c.86-.25,1.93-.66.62.26,2.66-1.41,2.04-1.66-.62-.26Z"/>
    <path class="st0" d="M212.25,518.09l1.13-.37.78-.7c-.39.36-2.08.91-1.91,1.07Z"/>
    <path class="st0" d="M193.48,524.35c-.03.18.65.15.84.27l.98-.64c-.59.15-1.65.54-1.82.37Z"/>
    <path class="st0" d="M194.32,524.63l-1.47.96c1.43-.62,1.63-.85,1.47-.96Z"/>
    <polygon class="st0" points="201.47 522.49 203.82 520.76 200.98 522.73 201.47 522.49"/>
    <polygon class="st0" points="187.43 527.07 188.18 526.35 186.8 527.55 187.43 527.07"/>
    <path class="st0" d="M183.42,528.91c.55-.56-1.11-.05-.48-.52-1.07.53-1.91,1.17-2.66,1.74.85-.51,1.81-.89,3.14-1.22Z"/>
    <path class="st0" d="M178.99,531.05c.42-.26.84-.57,1.29-.92-.45.27-.88.56-1.29.92Z"/>
    <path class="st0" d="M190.12,526.74c-.16-.03-.5-.14-1.43.17l.8.11c.19-.08.41-.18.63-.28Z"/>
    <path class="st0" d="M189.52,527.02h-.03c-.68.29-1.16.49-1.36.58.18-.07.59-.25,1.39-.58Z"/>
    <path class="st0" d="M190.28,526.68c-.06.03-.1.04-.16.07.08.01.12,0,.16-.07Z"/>
    <path class="st0" d="M197.18,524.08c-.83.65-2.66,1.77-.63,1.24.54-.57-.62-.27.63-1.24Z"/>
    <path class="st0" d="M191.27,526.81l1.72-.68c-.08-.09-.45-.1-.04-.42l-1.68,1.09Z"/>
    <polygon class="st0" points="190.5 527.31 191.27 526.81 190.63 527.06 190.5 527.31"/>
    <path class="st0" d="M182.06,530.15c-.66.49-1.45.86-2.35,1.28,1-.34,2.02-.74,2.98-1.16.08-.18.4-.59-.63-.12Z"/>
    <path class="st0" d="M185.7,528.67s-.11.07-.15.09c.11-.01.2-.04.15-.09Z"/>
    <path class="st0" d="M170.7,535.68c.06,0,.12,0,.18,0,0-.03,0-.05,0-.08l-.17.09Z"/>
    <path class="st0" d="M182.88,530.27c.76-.24,1.15-.53,1.52-.84-.53.28-1.09.56-1.71.83-.04.08-.03.12.19,0Z"/>
    <path class="st0" d="M176.58,532.31c.42-.08.88-.2,1.36-.33-.43.04-1.27.17-1.36.33Z"/>
    <path class="st0" d="M185.26,528.77s.06-.04.1-.07c-.28.02-.23.05-.1.07Z"/>
    <path class="st0" d="M185.26,528.77c-.35.22-.6.45-.86.66.43-.23.82-.45,1.15-.67-.1.01-.21.01-.29,0Z"/>
    <path class="st0" d="M169.47,539.54c-.08-.41,1.55-1.79,3.35-2.28,1.43-1.1-.19-1.72-1.95-1.59.04.18.1.31-1.39,1.44.66-.15,3.86-1.56,2.65-.49-2.04,1.36-1.82.86-2.96,1.27,1.11-.08-2.31,2.18-1.49,2.54l1.71-1.29c.09.08-.49.62.08.41Z"/>
    <path class="st0" d="M174.09,534.04l.69-.39c-.84.32-1.49.46-2.68.74-1.06.78-1.22,1.04-1.23,1.2,1.12-.6,2.26-1.18,3.44-1.72l-.22.17Z"/>
    <path class="st0" d="M177.94,532.26c-.37.63-1.96,1.51-.75,1.5,2.02-.9,1.28-.94,2.42-1.64-3.23,1.52.84-.63-1.62.17.61-.34,1.18-.62,1.72-.87-.61.21-1.2.39-1.77.55.03,0,.06,0,.09,0h.01s0,0,0,0c.16-.01.22,0,.05.04,0,0-.05.03-.06.04,0,.06-.04.14-.08.21-.98.33-.19-.04.08-.21,0-.02.02-.05.01-.08,0,0,0,0-.01,0l-3.24,1.68c.37-.14.79-.31,1.31-.55.49-.22,1.09-.5,1.85-.85Z"/>
    <path class="st0" d="M195.21,526.96c-.12.01-.13-.02-.15-.04-.19.14-.25.21.15.04Z"/>
    <path class="st0" d="M193.76,527.33c.21-.16.34-.41,1.12-.72.72-.19.08.19.18.3.42-.32,1.49-1.02-.05-.55l-.21.16c-1.37.47-3.27.74-3.07.58.54.18.99.28,2.02.23Z"/>
    <path class="st0" d="M185.81,529.98l-2.64,1.39,1.54-.27-.16-.17c1.58-.6,1.14-.71,1.26-.95Z"/>
    <polygon class="st0" points="170.29 535.67 170.42 535.07 169.2 536.5 170.29 535.67"/>
    <polygon class="st0" points="166.92 537.67 166.84 537.26 166.08 537.98 166.92 537.67"/>
    <path class="st0" d="M164.02,614.92l-.74-.49c.34.24.57.39.74.49Z"/>
    <path class="st0" d="M168.87,619.04l.24-.05c-.3-.11-.44-.12-.24.05Z"/>
    <path class="st0" d="M169.94,602.56c.59,1.17,1.12,2.58,1.34,2.18l.06-.58c-.66-.59-1.08-1.11-1.4-1.6Z"/>
    <path class="st0" d="M211.84,648.33c.11.06.23.13.35.2.17-.05.33-.09.48-.14.14-.07.28-.14.41-.2-.35.12-.78.13-1.24.14Z"/>
    <path class="st0" d="M210.36,649.75c-.58-.32-1.13-.66-1.63-1.02.32.27.82.62,1.63,1.02Z"/>
    <path class="st0" d="M137.67,592.44l-1.06-.34c1.2,1.04.82.42,1.06.34Z"/>
    <path class="st0" d="M132.97,559.73c-.16.76-.15,1.47-.09,2.09.02.32.08.61.14.88.06.28.11.53.23.84-.41-1.89.04-3.29-.27-3.81Z"/>
    <path class="st0" d="M168.9,613.03c-.46-.28-.69-.36-.74-.28.47.3.76.43.74.28Z"/>
    <path class="st0" d="M135.22,566.9c-.1-.19-.19-.38-.29-.58-.57-.72-1.15-1.38-1.69-2.78.39,1.48,1.04,2.57,1.98,3.36Z"/>
    <path class="st0" d="M188.67,517.24c.09-.03.19-.08.27-.1,0-.06-.12,0-.27.1Z"/>
    <path class="st0" d="M222.49,502.62c-.3.2-.8.5-1.27.78.25-.11.63-.34,1.27-.78Z"/>
    <path class="st0" d="M153.2,544.01c.77-.32.11-.09,0,0h0Z"/>
    <path class="st0" d="M157.53,544.2c-.14.11-.24.21-.23.31.02-.12.11-.22.23-.31Z"/>
    <path class="st0" d="M142.57,571.62s.03.03.05.05c-.09-.24-.08-.2-.05-.05Z"/>
    <path class="st0" d="M154.44,543.76c-.31.06-.66.14-1.04.25.17-.03.49-.1,1.04-.25Z"/>
    <path class="st0" d="M154.21,543.62c.27-.08.48-.15.69-.21.07-.1-.03-.11-.69.21Z"/>
    <path class="st0" d="M152.12,544.46c.45-.18.88-.32,1.29-.45-.16.03-.24.03-.2,0-.23.09-.55.23-1.09.44Z"/>
    <path class="st0" d="M132.54,554.3c.05-.02.11-.03.17-.05.6-.55.31-.35-.17.05Z"/>
    <path class="st0" d="M187.66,615.22s-.05-.03-.08-.05c.02.03.05.07.07.1v-.04Z"/>
    <path class="st0" d="M189.93,617.15c-1.26-.55-1.7-1.11-2.27-1.88l-.24,1.57,2.51.31Z"/>
    <path class="st0" d="M152.46,605.03l1.3,1.66c-2.31-1.17-3.51-2.54-2.42-.84,1.11-.82,6.16,5.22,7.27,4.38l.85,1.11c-.29-.27-.39-.25-.67-.51,1.59,2.23,2.13.56,4.61,2.94.84.86,1.35,1.55.62,1.14l2.25,1.47c.58.52.28.58-.29.06l3.19,2.53h-.05c.58.22,1.81.8,2.39,1.1.67.81-.49-.22-.39.08l1.95,1.17c.49.85-1.18-.05-2.35-1.09.76,2.39,1.68.93,4.68,4.39l-1.75-1.2c.59,1.48,2.02,2.26,3.55,4.15-.27-.56-2.91-3.94-.82-2.68.46.51,1.13,1.11,2.31,1.74-.3.38.76,1.1,2,2.11l-.49.42c1.45.97,1.55.63,2.52,1.07,1.44,1.29,1.44,1.93,1.52,2.54,2.33,2.07-1.15-1.98,1.77.28,1.85,1.84,3.43,2.8,6.13,4.4,1.31,1.29-.49.11-.08.66l1.6.58c.31.25.11.3.01.32,1.21.66.47-.44,2.3.69.44-.11,1.18.73,2.16,1.71,1.05,1,2.07,1.98,3.36,2.48.41.53-.48.13-.48.44,3.21,1.74,2.72,1.6,5.63,2.69.65.58,1.34,1.15,2.09,1.69-1.51-1.41.95-.49,3.1-.4-.59-.4-1.01-.78-1.31-1.01.95.3,1.97.48,2.77.3l-.68.7-.03-.14c.08-.23.23-.16.44.17l.3-.32c-.07.05-.16.1-.26.15.1-.02.2-.05.27-.07l-.23.24c-.03-.12-.06-.21-.09-.29.09-.53.15-.72.35-.65.19.07.46.42.62.94v.05s-.18.67-.18.67l-.38-.09c-.47-.12-.89-.24-1.24-.46-.9.24-1.86.31-1.81.73.24.03.73.1,1.24.21-.27.04-.44.08-.35.18.09.11.57.06,1.25,0,.3.24.65.47,1.05.69l.5.28,1.27-2.12.02-.03c-.09-.11-.19-.21-.29-.3.08-1.14-.29-2.22-.74-3.06-.46-.85-1.01-1.55-1.57-2.16-3.08-1.9-6.1-1.61-9.17-5.69,1.13.68.84-.29,1.39-.59.1.71.71,1.41,1.48,2.06.8.68,1.68,1.19,2.66,1.95-.98-.8-.55-.86-.26-.76-1.17-.62-2.22-1.41-3.24-2.41.46-.24-.24-.92-.71-2-.17.64-.76.07-1.5-.89-.73-.96-1.67-2.22-2.35-2.87.2-.29.75-.16,2.04,1.77-.9-2.53-2.87-1.93-3.89-4.26.36.43.49.7.77.76-1.02-.85-2.87-3.42-2.17-3.04l.36.42c-1.14-1.46-2.97-3.58-4.68-5.28-1.71-1.7-3.25-3-3.75-2.91.06-.1,1.08-.35,1.35-.3l-6.55-2.78c.92-.09.68-2.88,3.05-.97-.52-.7-1.17-1.56-2.61-2.72.33.5.24,1.8-.36,1.25-.93-2.17-.74-1.42-2.1-3.88.49.75-1.02.82-1.94-.24.27.04.75-.85,1.19-.56l-3.17-1.81c.73.51.81-.52.54-1.31.08.43-1.96-2.26-2.69-2.91l.8,1.3c-2.53-3.1-3.79-1.87-6.43-4.75.49.18,1.85-.14.56-1.68-1.06-.26-4.8-.97-7.57-3.05l-.24-.7-2.16-1.57c1.79.51,6.38,2.45,8.68,3.79-.86-1.24-.01-.57-1.61-2.13-.34-.78,1.19.53,1.67.98l-3.55-3.8c-.3.64-3.31-2.27-3.56-1.73l4.51,3.42c-.31.63-3.65-.92-6.2-3.52-.49-.84,1.33-.38,1.43-.6-.5-.16-2.81-2.08-2.95-2.42l1.37.81c-1.3-1.59-3.02-1.64-4.35-3.78-.58-.61-1.23-2.35-1.61-2.17.47,1.5-.97,3.41-2.03,3.2-.18-.24-2.7-3.58-3.13-4.52-.58-1.39,2.49.4,2-.79-.16.1-.87-.27-1.15-.43-.52-.72.64-.16-.76-1.42-.71.27-2.65-2.78-1.04-.22-1.44-1.19-1.28-1.51-2.77-3.09.15.82-2.44-.45-3.82-1.77.2-.03.1-.5.04-.72-1.22-1.49-2.09-2.69-2.95-3.86-.85-1.18-1.71-2.3-2.68-3.76-.02-.18-.21-.65-.27-1.01-.07-.36-.02-.59.23-.38-.15-.18-.31-.31-.45-.54-.15-.25-.3-.58-.37-1.07.25-.95.27-.4.38.15.12.57.37,1.13.53.4-.21,0-.49-.54-.6-1.28-.11-.74.05-1.66.26-2.35-.37.04-.79.85-.83,1.82-.05.97.37,2.04.71,2.6-.36.17-1.07-.26-1.56-1.45-.24-.59-.38-1.39-.29-2.29.08-.91.41-1.9.96-2.82.94-1.41,1.36-1.49,1.45-1.42.11.09,0,.43.16.19,1.09-1.01,1.9-1.66,2.5-2.23.61-.55,1.02-1.01,1.43-1.42.81-.82,1.59-1.56,3.89-2.29,1.93-.29.52.94,1.06,1.12-2.12,1.2-3.53,1.32-4.97,2.2.63-.28,1.27-.55,1.91-.79-.61.52-1.94,1.44-2.76,1.82.77-.25,2.79-1.46,5.26-2.57,1.23-.57,2.56-1.12,3.84-1.64,1.28-.52,2.48-1.01,3.53-1.29.64-.45,1.82-1.09,1.15-1.07l-1.25.56c-1.34.05,2.2-1.5.5-1.06,1.61-.96,3.41-2.07,5.77-2.83l.68.37c-.13-.13-1.65.33-2.25.76.45-.32,1.41-.49,2.37-.77.95-.28,1.89-.67,2.22-1.29-.59.15-1.19.28-1.77.41,1.49-1.04,3.11-2.68,5.16-3.64-1.19-.02-.42.33-2.15.49.82.05-.44.75-1.6,1.35-1.16.6-2.24,1.12-1.06,1.06-1.81-.04-2.61.84-4.87.95.13.17.85.09-.96.67-.06.09-.22.23-.33.31-.06.01-.08.02-.13.03.04,0,.07,0,.11-.01-.07.06-.07.07.04,0,.46-.08.84-.11,1.02-.05-.71.76-3.62,1.83-4.51,2.49-1.12.38.36-.41-.31-.35-.45.32-.9.66-1.29.96-.31-.35-3.05.5-.71-.79l-2.23.94c-1.43.34-3.34,1.11-4.39,1.89-1.13.47-2.45,1.96-1.7,1.11-1.13.77-2.25,1.63-3.29,2.64l-.1-.06c-1.63,1.36-3.23,3.38-3.76,6.1-.25,1.34-.17,2.76.14,4.06.04.17.07.32.12.5.06.18.12.39.18.55.13.34.26.65.39.95.26.55.52,1.11.79,1.68.89,1.07,1.88,2.04,3.11,3.73l-.04.57c1.13,1.17,2.87,4.02,3.65,4.29.19,1.01,1.48,2.56,3.02,4.1,1.53,1.55,3.34,3.04,4.28,4.08l.43-.29c1.4,1.38,2.87,2.57,4.77,4.09l.2-.43c1.77,1.17,3.7,3.93,6.11,6.18-.28-.03-.85-.64-1.21-1.13,2.15,3.45,6.49,5.25,8.45,8.33.74.52,1.14,1.02,1.49,1.55-.06-.06-.11-.11-.17-.14.06.07.15.17.25.27.21.34.44.68.67,1.05-.17-.34-.36-.66-.54-.91.48.48,1.23,1.2,2,1.87l-.06.64c.06.06.11.1.17.16.54.85.71.44.62-.2.4.32.79.61,1.12.8-.03,1.12,1.95,1.8,2.08,3.21.75.28,3.71,3.67,4.71,3.49-.06.1.11.36-.27-.04.71.91,1.42,1.81,2.3,2.4l-.11.77,2.32,1.25c.77,1.36,1.05,1.96-.33,1.19,3.03,2.14,2.23,1.95,4.86,3.71l-.39.16c.76.79,2.35,1.73,2.55,2.44.55,1.17,2.58,3.42,4.79,6.13,1.1,1.36,2.26,2.82,3.3,4.31,1.08,1.48,1.91,2.95,2.72,4.42.12-.85.43-.16.87.73.44.89,1.11,1.96,1.55,1.75.07.48.67,1.32-.32.64,1.36,1.26,2.53,2.18,3.35,2.83.85.67,1.56,1.17,2.54,1.52.06.41-.72-.09-.61.22.21.09.81.4.85.7.05.29-.4-.1-.8-.28,1,.88,1.35,1.14,1.76,1.23.37.08.81.06,1.2.04,0,.23-.09.39-.11.54l1.19-1.23c-.69-.13-1.29-.19-2.27-.12-.2-.21-.47-.48-.47-.61,0-.13.27-.08,1.1.19-.45-.17-1.85-.9-3.16-1.76-1.31-.83-2.54-1.66-2.78-1.43-.19-.34-1.26-.98-1.54-1.11-1.03-.8-1.59-1.24-2.15-1.68-.28-.22-.6-.44-.96-.68-.35-.23-.75-.49-1.28-.84l.52.48c-1.26.08-1.83-1.04-3.53-2.17l.09-.03c-3.4-3.25-1.79-.98-5.04-4.33l-.1.53c-.99.54-2.81-3.05-5.12-4.47l.57.83c-1.36-.67-2.26-3.71-3.31-4.76-.19-.28.48.22.87.46-2.59-2.96-.79.16-3.1-1.58-.2-.6,1.08-.22-.38-1.52-.58-.85-5.11-2.74-6.72-4.89.29.57.57,1.14-.59.44-1.65-1.23-3.63-4.29-5.57-4.86-.15-.22-.18-.34-.15-.39-1.33-.85-4.1-3.04-5.11-3.32-.02-2.18-7.88-5.81-6.85-6.94l-3.68-3.13.2-.03c-2.25-2.12-3.31-2.57-4.37-3.02-.47-.55.02-.31.12-.33-3.18-3.22-3.56-3.47-6.91-5.4l.03-.63c-.96-.46-4.42-4.89-8.18-7.33.07-.01.2-.03.52.15-2.09-1.4-4.16-3.58-6.05-5.39-1.92-1.81-3.63-3.19-4.9-3.05l-2.84-1.69c3.22,2.76-.99.22.19,1.54-1.38-.96-3-3.15-1.36-1.92l.19.27c.59-.13-.38-1.02-1.41-1.95-.21-.2-.43-.4-.63-.58-.18-.17-.31-.31-.42-.44-.22-.27-.28-.46-.09-.5-.22-.22-.42-.46-.6-.71-.09-.13-.17-.26-.24-.39-.03-.07-.08-.14-.1-.2l.19-.13c.45-.29.9-.57,1.35-.83.61-.35,1.21-.69,1.81-1.04,1.56-.9,3.14-1.81,4.68-2.84l1.08-.72c.34-.22.68-.43,1.04-.63.7-.41,1.44-.79,2.19-1.16,1.5-.74,3.07-1.45,4.64-2.25l-1.15-.23c.83-.4,1.67-.82,2.5-1.28.73-.24,1.17,0-.64.97,1.16-.11,2.82-2.06,2.75-2.23,1.68-.98,1.49-.59,1.01-.04-.45.54-1.36,1.3-.81.95.49-.34.89-.65,1.33-.98l-.35.14c.9-.99.81-1.32,2.75-2.65,1.29-.74.88-.08,1.37-.39.03.04.2-.05.74-.5l2.83-1.91-1.45.3c1.08-1.1,2.66-1.79.99-1.45,1.25-.25,3.89-1.91,6.57-3.44,2.69-1.58,5.2-3.21,5.89-3.45,1.61-1.48,3.41-2.58,5.66-3.93-.62.24-1.29-.1.67-1.23.02,1.58,3.81-1.71,5.86-1.88-1.72.34,5.33-3.58,2.68-2.97,1.65-.92.37.36,1.74-.14,3.5-2.84,8.5-5.01,13.1-8.06-.02-.19-.95.06-.08-.78l2.94-.76c.89-.63.34-1.39,2.36-1.87-.32.01-.79.04-.19-.38,4.87-2.37,9.61-5.21,14.42-8.04,2.4-1.41,4.83-2.81,7.27-4.18,2.44-1.36,4.91-2.64,7.46-3.68-1.44.46-.62-.07.35-.66-.67.3-.21-.38-.45-.52,1.43-.59,2.86-1.15,4.29-1.68.41-1,4.27-2.29,4.44-3.02l-1.25.72c1.4-1.54-3.15-.28-3.36-1.23-1.53,1.75-5.71,1.72-8.15,4.63-.78.24.42-.61-.06-.58-.57.82-1.46,1.46-3.28,2.35l.14-.21c-4.79,3.03-7.1,3.84-12.79,6.76l.64.18c-1.23.62-1.55.63-2.17.85-1.02,1.4,3.38-1.86,2.52-.47-2.06.05-8.43,4.76-10.05,4.45-1.84,1.06.81.16-1.02,1.22l-.64.03-.27.6c-1.23.65-2.02.7-2.2.51.31-.15.79-.55,1.09-.76-1.74.62-4.32,2.74-4.9,2.97l1.84-.92c-4.8,3.26-10.95,6.72-15.32,10.22l.48-.04c-3.36,2.63-3,1.62-6.84,4.28l.11-.14c-.67.68-1.66,1.45-2.76,2.1.86-.85-2.15.74-.99-.32-3.67,2.81-1.74,1.5-3.89,3.8l-.79.05c-.71.82-.69,1.02-2.63,2.31,1.47-1.25-1.56.28.05-1.18-2.3.91-3.74,2-4.95,2.89-1.23.91-2.16,1.63-3.44,1.77-.67,1.06.3.58,1.33-.03,1.03-.62,2.15-1.34,1.65-.92,1.08-.26-1.21,1.62-2.54,2.4-1.31.85-2.98.41-6.18,2.72.32-.22.3-.3.62-.53-1.35.64-2.14,1.97-3.85,2.65-.23.54-.71.87-1.11,1.16-.39.29-.68.51-.58.92.9-.66,1.88-1.44,2.81-2.17-1.56,1.34-2.51,3.26-5.71,4.38.16-.26.93-.9,1.46-1.33-.94.26-1.55,1.01-2.57,1.25-.05-.42.9-.94,2.01-1.57,1.14-.63,2.29-1.39,3.03-2.29-.26.08-.58.3-.91.55-.3.24-.62.5-.9.72-.56.44-.97.67-.74.05-.73,1.71-3.31,1.59-5.36,3.55l-.05-.5c-.35.26-1.05.87-1.76,1.25l1-1.23c-.87.75-1.89,1.17-2.92,1.64-.51.24-1.03.48-1.53.78l-.37.23-.3.21c-.19.14-.38.29-.56.46.43-.3.71-.5,1.01-.7.31-.2.53-.33.7-.41.33-.15.42-.1.44,0,.04.2-.17.62.74.22-.56.45-1.02.83-1.41,1.12-.35.27-.65.46-.93.6-.55.28-.96.36-1.4.43-.44.07-.9.14-1.56.4-.33.13-.71.3-1.16.54-.23.12-.47.26-.74.42-.29.18-.6.38-.94.6.18-.12.26-.17.38-.24.12-.07.25-.14.39-.21.27-.13.56-.26.8-.34.48-.17.76-.17.28.25-.26.12-.53.26-.81.39l-.43.2c-.14.06-.27.11-.53.25-.9.45-1.77.87-2.39,1.13-2.77,1.92-2.35,1.8-1.6,1.46.77-.35,1.84-.86.93-.07-.92.35-1.5.73-1.92,1.12.08.19.08.34.24.56.17.21.35.43.54.67.38.45.77.92,1.21,1.48l-.52.1c.79,1.35,1.61,2.05,2.08,2.41.5.37.73.38.95.42.21.02.42.05.77.26.3.17.73.52,1.47,1.25l-1.77-.61,1.77,1.25-.69.14c2.07,1.17,2.57,1.69,4.25,3.22-.2-.59.78-.5,2.35.72.88,1.07-.87-.12,1.36,1.59-.68-.16-1.46-.3-2.14-1.41-.2.05-.68-.15-.88-.11.95,1.17,2.82,2.34,3.59,2.97-.29-.26-.63-.57-.77-.78l3.56,2.08c.38.55-.11.34-.59.12.67.49,1.25.68,2.21,1.44-.5.1-.69.45-2.13-.51l3.26,2.18c.09.3,1.22,1.65.74,1.43,1.49,1.58,4.51,2.88,6.48,5,.16.04.44.18.93.54,1.97,1.84,3.45,3.78,6.2,5.5l.9,1.73c1.99,1.54-1.26-2.29,2.05.28,2.36,1.79.43,1.18,1.08,2.02,1.34.71,3.73,1.86,5.4,4.09-.76-.5-1.23-1.04-1.89-1.56ZM176.34,624.86c-.53-.3-1.64-.8-1.8-1.29.88,0,1.12.53,1.8,1.29ZM213.11,644.96c.43.29.9,1.03,1.01,2.03-.25-.67-.61-1.33-1.01-2.03ZM144.92,547.97s-.04.03-.05.05c-1.34.42-.86.27.05-.05ZM147.59,547.01c.23-.17.19-.23.05-.24-.13.19-.7.44-1.38.7.23.04.61-.03,1.33-.46ZM141.56,552.09l-.51.21c.91-.82.71-.52.51-.21Z"/>
    <path class="st0" d="M210.56,649.61c-.17-.14-.17-.25-.19-.35-.27-.02-.32.07.19.35Z"/>
    <path class="st0" d="M137.86,592.5l-.07-.07c-.06-.01-.1,0-.13,0l.2.06Z"/>
    <path class="st0" d="M151.45,578.33c.36.44.53.73.62.94.1-.06-.01-.32-.62-.94Z"/>
    <path class="st0" d="M160.69,540.67c-.48.29-.97.58-1.46.84.72-.36,1.03-.4,1.43-.51-.08-.08-.44-.09.02-.33Z"/>
    <path class="st0" d="M175.56,535.89c.21-.17.5-.24.71-.4l-.16-.18c-1.01.48-1.62.99-.55.57Z"/>
    <path class="st0" d="M162.84,541.36c.31.29,1.22-.35,2.25-1.03-.06.04-.12.08-.19.11.03-.67-1.01.14-2.06.92Z"/>
    <path class="st0" d="M165.34,540.18c.32-.21.65-.41.99-.58.01-.27-.43.19-.99.58Z"/>
    <path class="st0" d="M150.73,545.35c.61-.14.16-.63.55-.61.43-.77-3.56,2.21-.55.61Z"/>
    <polygon class="st0" points="164.36 542.06 163.73 541.83 163.31 542.52 164.36 542.06"/>
    <path class="st0" d="M155.27,545.75l1.91-.57c-.06-.07.16-.2.43-.35-1.14.43-2.44.8-2.34.93Z"/>
    <path class="st0" d="M157.61,544.83c.6-.22,1.15-.46,1.44-.68-.31.14-.99.44-1.44.68Z"/>
    <path class="st0" d="M162.02,543.46l-.57.17c-.42.2-.86.38-1.29.57.62-.23,1.25-.48,1.86-.74Z"/>
    <path class="st0" d="M136.44,556.01c-.43.63-.78,1.32-1,2.05.09.27.36-.26.72-1,.16-.52.63-1.22.28-1.04Z"/>
    <path class="st0" d="M142.32,552.93c-.55.2-.63.13-1,.16l.28.56c.24-.24.47-.48.72-.72Z"/>
    <path class="st0" d="M137.78,556.76c-.07.27-1.01,2.49.16.55-.08-.25,1.14-1.81-.16-.55Z"/>
    <polygon class="st0" points="152.7 581.88 152.29 581.51 151.65 582.3 152.7 581.88"/>
    <path class="st0" d="M175.09,600.47c-1.61-2.07-.88-.03-2.28-1.95-.59-.28,1.14,1.57.56,1.25,1.26.97,1.72,1.68,1.72.69Z"/>
    <path class="st0" d="M173.37,599.77c-.2-.16-.42-.32-.66-.48.36.28.54.41.66.48Z"/>
    <polygon class="st0" points="227.97 500.26 229.5 499.74 228.42 499.89 227.97 500.26"/>
    <path class="st0" d="M230.43,498.24l.61.44.65-.93c-.32.17-.94.51-1.26.49Z"/>
    <path class="st0" d="M179.03,628.78l.2-.04c-.09-.29-.38-.55-.95-1.06l.76,1.1Z"/>
    <polygon class="st0" points="162.02 614.04 162.3 614.3 162.13 613.39 162.02 614.04"/>
    <path class="st0" d="M147.3,602.16c.56.53,1.32,1.03,1.89,1.56-1.33-1.03-1.56-2.25-1.89-1.56Z"/>
  </g>
</svg>