<svg xmlns="http://www.w3.org/2000/svg" id="Layer_1" version="1.1" viewBox="142.23 295.7 308.76 138.95">
  <!-- Generator: Adobe Illustrator 29.1.0, SVG Export Plug-In . SVG Version: 2.1.0 Build 142)  -->
  <defs>
    <style>
      .st0 {
        fill: #fff;
      }
    </style>
  </defs>
  <g>
    <path class="st0" d="M411.12,359.48c.07.12.14.23.2.33.04.08.07.15.12.22.08.14.18.25.27.35.12.11.12.15.17.2.04.05.09.08.13.11.12.07.12.07.13.08.01,0,.03.01.03.02.04.01,0,0,.06.01-.12-.03-.04-.02-.24-.13-.14-.1-.17-.19-.36-.38-.14-.16-.23-.32-.3-.46-.1-.16-.22-.34-.28-.48-.04-.07-.07-.13-.1-.19-.04-.08,0-.01,0-.02,0,.02.02.03.02.04.02.04.03.06.04.08.02.05.04.1.06.12,0,0,.01.02.02.02.02.03.05.09.04.07Z"/>
    <polygon class="st0" points="394.1 360.56 394.42 360.39 391.74 360.8 394.1 360.56"/>
    <path class="st0" d="M377.06,360.35c1.6.75,6.18,0,9.21.28l.5.17,1.38-.56c-3.69.06-8.49.36-11.08.11Z"/>
    <path class="st0" d="M368.01,358.61c.55.29-1.97.19,2.12.14-.2-.03-.26-.05-.38-.08-.37,0-.87-.02-1.74-.06Z"/>
    <path class="st0" d="M369.74,358.67c1.8.02-1.17-.26,0,0h0Z"/>
    <path class="st0" d="M361.45,358.63l2.37-.19c-.49-.18-2.6-.27-1.81-.37-2.43.08-1.94.25-.56.55Z"/>
    <path class="st0" d="M359.19,359.09l1.23-.07c-.21-.07-.54-.11-1.23.07Z"/>
    <path class="st0" d="M363.03,358.86l-2.61.16c.34.12.37.36,1.2-.05-.22.21.3.02,1.41-.11Z"/>
    <path class="st0" d="M364.5,359.01c1.32.19,3.03.33.65.52,4.53.01,3.87-.51-.65-.52Z"/>
    <path class="st0" d="M376.18,361.07l1.77.24,1.54-.21c-.77.11-3.41-.26-3.31-.03Z"/>
    <path class="st0" d="M346.7,357.91c-.15.15.79.42.96.62l1.75-.14c-.9-.13-2.6-.25-2.72-.48Z"/>
    <path class="st0" d="M347.66,358.53l-2.63.21c2.34.08,2.77-.04,2.63-.21Z"/>
    <polygon class="st0" points="358.75 359.87 363.06 359.43 357.92 359.86 358.75 359.87"/>
    <polygon class="st0" points="336.68 357.73 338.17 357.4 335.52 357.89 336.68 357.73"/>
    <path class="st0" d="M330.03,357.73c1.1-.29-1.51-.5-.34-.67-1.81.05-3.36.29-4.73.51,1.46-.12,3.04-.09,5.08.16Z"/>
    <path class="st0" d="M322.63,357.9c.73-.07,1.49-.19,2.32-.32-.78.07-1.55.16-2.32.32Z"/>
    <path class="st0" d="M340.57,358.59c-.2-.09-.59-.34-2.06-.46l1.03.44c.31,0,.67.02,1.03.02Z"/>
    <path class="st0" d="M339.58,358.58h-.04c-1.12-.04-1.9-.06-2.23-.07.29,0,.97.03,2.26.07Z"/>
    <path class="st0" d="M340.83,358.59c-.1,0-.17,0-.26,0,.1.04.16.06.26,0Z"/>
    <path class="st0" d="M351.9,359.32c-1.54.2-4.75.39-1.66.82,1.11-.27-.66-.51,1.66-.82Z"/>
    <path class="st0" d="M342.1,359.15l2.78.15c-.05-.11-.55-.29.21-.39l-2.99.24Z"/>
    <polygon class="st0" points="340.74 359.26 342.1 359.15 341.07 359.09 340.74 359.26"/>
    <path class="st0" d="M327.39,358.31c-1.21.18-2.51.2-3.99.22,1.59.09,3.23.13,4.79.14.22-.13.91-.37-.8-.36Z"/>
    <path class="st0" d="M333.31,358.46c-.08,0-.19.02-.27.02.16.04.3.05.27-.02Z"/>
    <path class="st0" d="M308.8,358.45c.08.03.15.05.23.08.02-.02.03-.05.06-.07h-.29Z"/>
    <path class="st0" d="M328.45,358.75c1.2.09,1.91-.02,2.6-.15-.9.04-1.85.07-2.87.07-.1.06-.12.1.27.08Z"/>
    <path class="st0" d="M318.56,358.08c.62.09,1.33.17,2.07.24-.61-.14-1.85-.35-2.07-.24Z"/>
    <path class="st0" d="M332.64,358.36c.06,0,.11-.01.18-.02-.39-.1-.34-.05-.18.02Z"/>
    <path class="st0" d="M332.64,358.36c-.62.06-1.1.16-1.59.25.73-.03,1.41-.07,1.99-.13-.15-.03-.3-.08-.4-.12Z"/>
    <path class="st0" d="M304.36,361.16c.21-.39,3.36-.74,6.07-.29,2.67-.28.93-1.59-1.39-2.34-.08.17-.09.33-2.83.54.96.22,6.09.55,3.77.89-3.64.18-2.98-.16-4.75-.39,1.5.51-4.63.68-3.85,1.41l3.19-.23c.06.11-1.1.28-.21.39Z"/>
    <path class="st0" d="M314.27,358.61l1.13-.04c-1.29-.08-2.21-.24-3.9-.56-1.88.18-2.27.32-2.4.45l5.56.09-.39.06Z"/>
    <path class="st0" d="M320.46,358.59c-.88.43-3.6.6-1.94,1.07,3.31-.01,2.32-.35,4.3-.53-5.35.09,1.54-.23-2.33-.49,1.05-.07,2-.09,2.89-.11-.96-.05-1.89-.12-2.76-.2.05.01.08.02.12.03h.03s0,0,0,0c.23.05.31.09.05.06-.02,0-.08,0-.11,0-.04.06-.14.11-.24.16-1.55-.1-.24-.11.24-.16.02-.02.06-.04.07-.06h-.02s-5.36.2-5.36.2c1.13.07,2.55.06,5.07.02Z"/>
    <path class="st0" d="M347.36,361.01c-.17-.04-.16-.07-.17-.1-.35.05-.48.08.17.1Z"/>
    <path class="st0" d="M345.16,360.71c.39-.05.72-.22,1.99-.15,1.1.15,0,.21.05.35.77-.1,2.68-.25.29-.51l-.38.05c-2.15-.19-4.92-.78-4.54-.83.62.4,1.17.68,2.6,1.09Z"/>
    <path class="st0" d="M332.66,359.69l-4.47.19,2.27.38-.11-.22c2.54.1,1.99-.17,2.31-.34Z"/>
    <polygon class="st0" points="308.29 358.23 308.89 357.78 306.31 358.4 308.29 358.23"/>
    <polygon class="st0" points="302.49 358.24 302.71 357.85 301.18 358.07 302.49 358.24"/>
    <path class="st0" d="M332.18,354.33l1.31-.16c-.62.06-1.02.11-1.31.16Z"/>
    <path class="st0" d="M322.69,354.68l-.22.2c.43-.12.61-.21.22-.2Z"/>
    <path class="st0" d="M159.99,366.84c-1.91,0-3.78-.43-3.54-.01l.55.39c1.19-.2,2.15-.32,2.99-.38Z"/>
    <path class="st0" d="M245.02,359.64c-.18-.03-.38-.06-.57-.09-.45.19-.87.36-1.25.52.55-.13,1.17-.28,1.82-.44Z"/>
    <path class="st0" d="M246.25,357.75c.14,0,.34.01.46.02l.31.04.62.07,1.25.14c-.28-.05-.62-.1-1.04-.15-.21-.02-.43-.05-.67-.07-.26-.02-.45-.06-.93-.06Z"/>
    <path class="st0" d="M384.22,354.74c.54-.12,1.09-.25,1.63-.35-2.52-.14-1.42.15-1.63.35Z"/>
    <path class="st0" d="M242.95,359.15c-1.66-.08-2.98-.08-4.14-.04,2.01.14,3.63.43,4.14.04Z"/>
    <path class="st0" d="M328.63,359.08c.8-.11,1.14-.21,1.11-.31-.82.11-1.28.21-1.11.31Z"/>
    <path class="st0" d="M234.05,359.42c.29.02.58.03.88.05,1.2-.15,2.41-.29,3.88-.35-1.48-.09-3.16-.1-4.76.31Z"/>
    <path class="st0" d="M268.74,366.17c-.14-.01-.3-.02-.43-.04-.04.06.15.06.43.04Z"/>
    <path class="st0" d="M213.81,364.75c.54-.06,1.42-.12,2.24-.18-.41,0-1.08.04-2.24.18Z"/>
    <path class="st0" d="M279.13,357.95c1.23-.03.2-.05,0,0h0Z"/>
    <path class="st0" d="M285.12,359.67c-.26.05-.46.11-.49.21.1-.1.27-.17.49-.21Z"/>
    <path class="st0" d="M221.99,362.9s-.06,0-.11,0c.37.06.31.05.11,0Z"/>
    <path class="st0" d="M280.98,358.15c-.46-.05-1-.1-1.58-.13.25.03.73.07,1.58.13Z"/>
    <path class="st0" d="M280.73,357.94c.43.02.76.03,1.08.04.16-.07.02-.12-1.08-.04Z"/>
    <path class="st0" d="M277.41,357.98c.71,0,1.36.01,2,.04-.24-.03-.34-.05-.28-.07-.36,0-.87.01-1.72.03Z"/>
    <path class="st0" d="M369.34,366.11c-.08-.02-.17-.04-.26-.05-1.25.12-.7.12.26.05Z"/>
    <path class="st0" d="M179.59,364.77c-.06.02-.09.02-.14.04.06,0,.13,0,.18,0l-.05-.03Z"/>
    <path class="st0" d="M183.93,363.9c-1.79.77-2.86.84-4.29.9l1.62,1.06,2.67-1.96Z"/>
    <path class="st0" d="M355.1,354.02l-3.13-.49c3.82-.54,6.55-.17,3.62-.85-.25.67-3.3.57-6.37.58-3.07,0-6.1.09-6.31.77l-2.07-.25c.59,0,.68-.08,1.27-.08-4.02-.57-2.95,1.04-8.1,1.01-1.79-.04-3.05-.19-1.84-.39l-3.97.49c-1.16.02-.89-.23.27-.25l-6.06.35.04-.04c-.86.25-2.8.65-3.75.82-1.54-.14.77-.17.37-.33l-3.34.44c-1.37-.31,1.39-.73,3.7-.77-3.17-1.25-2.77.47-9.52-.19l3.15-.24c-2.05-.72-4.5-.39-8.04-.87.83.27,7.12,1.15,3.51,1.53-1.02-.09-2.36-.13-4.32.14,0-.48-1.95-.37-4.38-.32l.16-.64c-2.63.23-2.41.54-3.95.87-2.92.02-3.54-.45-4.24-.84-4.68.08,3.25.67-2.27,1-3.89-.07-6.59.34-11.18.99-2.71-.06.45-.42-.53-.54l-2.36.65c-.59.02-.41-.15-.32-.23-2,.32-.13.65-3.28,1.01-.82.75-6.55-.65-10.41.31-.97-.14.45-.41.14-.65-5.33.74-4.57.56-8.96,1.36-1.25-.13-2.5-.24-3.75-.39,1.37.24,1.19.5.27.76-.46.13-1.11.26-1.83.38-.35.07-.75.1-1.15.21-.38.09-.77.18-1.15.27.5.08.96.15,1.37.21.37.08.74.16,1.02.21-.42.04-.82.03-1.19.11l-1.22.18-2.44.38c-.6-.05-.13-.32.66-.65-.33.09-.64.17-.89.23-1.78-.08-.9-.53.33-1,.61.08,1.22.16,1.81.24.59-.24,1.17-.49,1.56-.73.35-.24.75-.44.55-.63-.1.01-.26.05-.38.07-.11.02-.24.05-.38.08-.28.05-.6.1-.94.15.31-.13.51-.24.35-.29-.17-.05-.68.13-1.47.36l-1.19-.61-.25.31c-2.17.04-4.34.1-6.52.18-2.28.6-4.39,1.29-6.83,1.99-2.43.75-5.21,1.33-8.86,1.82,1.75-.69.29-.89.32-1.51,2.08.46,5.59-.77,9.41-1.17-1.99.18-1.59-.17-1.1-.33-1.13.23-2.22.51-3.32.71l-3.34.61c.09-.52-1.48-.24-3.26-.28,1.44.87-4.95,1.14-7.67,1.7-.2-.32.42-.72,3.77-.96-3.77-.4-4.65,1.61-8.36,1.33.84-.1,1.27-.08,1.58-.28-1.9.5-6.57.66-5.51.28l.82-.08c-1.36.09-3.1.22-4.96.46-1.87.26-3.74.51-5.52.8-3.53.56-6.47,1.18-6.81,1.65-.07-.1.57-1.11.87-1.32l-9.29,4.05c.76-.83-2.74-2.14,1.7-3.12-1.3.06-2.91.14-5.6.74.89,0,2.33.77,1.14.99-3.39-.4-2.37-.13-6.48-.33,1.3,0,.02,1.33-2.08,1.47.31-.2-.26-1.11.48-1.3-1.67.52-3.39,1-5.11,1.52,1.29-.3.17-.97-1.06-1.19.29.09-.86.17-2.28.33-1.42.15-3.11.42-3.82.65.79-.08,1.57-.14,2.35-.17-1.3.17-2.31.44-3.13.74l-10.03,3.71,10.3-.51c1.75-.09,2.78-.56,3.96-1.01,1.18-.46,2.5-.95,4.77-1.4-.65.37-1.43,1.75,1.51,1.29,1.13-.89,5.47-3.68,10.56-4.84l1.03.19,3.9-.9c-2.36,1.17-8.98,3.95-12.64,5.19,2.23-.05.67.3,3.94-.2,1.2.14-1.72.72-2.68.87l7.65-.88c-.43-.63,5.73-1.45,5.37-1.96l-8.18,1.81c-.43-.61,4.52-2.58,9.95-3.14,1.41.1-.88,1.32-.74,1.53.67-.33,5.07-1.06,5.58-.94l-2.25.62c3.03-.1,4.81-1.44,8.48-1.13,1.24-.08,3.81.59,3.99.18-2.11-.63-2.7-2.97-1.38-3.63.45.02,6.67.31,8.13.59,2.12.47-3,1.63-1.2,2.03.06-.19,1.19-.49,1.66-.59,1.33.07-.5.6,2.36.34.43-.71,5.84-.32,1.31-.66,2.79-.37,2.99-.05,6.29-.29-1.08-.37,2.86-1.69,5.66-2.06-.15.18.49.37.81.45,5.76-.31,8.87-.2,14.24-.54.5.13,3.11.17,2.02.53.76-.17,1.46-.44,3.11-.55,3.23.42-3.68.29-1.2.87.19-.4,4.24-.8,6.59-1.13-.75-.59-5.46.15-7.8.53-.06-.83,4-1.98,9.62-2.6,4.47-.39,1.96.47,2.73.32,8.4-.13,7.12-1.7,14.12-1.23,2.78.49.14,1.07.76,1.44-3.64.27-5.6-.24-8.07-.15l3.05.18c-1.15.2-3.58.41-4.91.28,2.33.39,14.18-.22,20.66.23,1.15-.19,3.14-.37,2.2-.59l-2.05.08c-1.89-.43,3.86-.61,1.26-.81,2.75-.31,5.84-.79,9.71-.53l.73.62c-.08-.18-2.53-.37-3.62-.19,1.62-.27,5.93.85,7.71.06l-2.71-.44c2.76-.3,6.18-.92,9.61-.7-1.56-.62-.79.06-3.23-.66,2.11.89-8.78-.09-5.39.86-2.5-.84-4.33-.37-7.6-1.08.1.2,1.16.39-1.72.29-.13.06-.44.13-.63.18-.09,0-.12,0-.19-.01.06,0,.1.02.16.02-.13.03-.14.04.06,0,.69.09,1.24.19,1.47.31-1.43.47-6.02.45-7.57.71-1.71-.09.71-.24-.22-.45l-2.31.37c-.23-.45-4.56-.7-.52-1.01l-3.63.02c-2.14-.24-5.09-.27-6.9-.05-1.72-.06-4.32.61-2.83.21l-5.69.45-.06-.11c-5.63.13-11.55,1.21-18,.83-1.88.23-3.82.5-6.98.57l-.64-.35c-2.41.29-7.3.08-8.31.55-2.69-.87-11.77.53-16.04.62l-.12.52c-2.94.18-5.72.44-9.37.97l.26.43c-3.11.64-8.12.49-13.07,1.18.31-.22,1.58-.33,2.48-.34-3.02-.14-6.12.47-9.12,1.11-1.5.32-2.99.65-4.43.9-1.46.26-2.81.39-4.29.47-1.35.41-2.31.56-3.25.64.12-.03.23-.06.32-.09-.13.03-.33.07-.54.1-.58.04-1.18.07-1.83.11.55,0,1.08,0,1.54-.06-1,.21-2.48.57-3.88.85-.22-.14-.44-.27-.65-.41-.11.01-.2.03-.31.04-1.32-.09-1.06.29-.32.62-.68.11-1.31.22-1.8.3-.05-.04-.1-.07-.17-.11l.29,3.46c.66.14,1.52-.14,2.47-.35.94-.21,1.95-.37,2.76-.05.47-.26,2.34-.5,4.24-.76,1.89-.26,3.79-.61,4.16-1.09.06.1.53.11-.31.2,1.77-.08,3.46-.22,4.96-.64l.8.52,3.61-1.28c2.31.09,3.27.18,1.09.93,5.32-1.4,4.36-.82,8.86-2.12l-.17.42c1.64-.22,4.2-1.08,5.24-.88.95.07,2.56-.03,4.6-.23,2.02-.23,4.38-.48,7.05-.69,5.3-.48,11.33-1.03,16.12-1.13-1.97-.98,4.48.1,4.75-.83.59.22,1.93.25.42.63,4.83-.84,7.26-.47,10.51-1.57.58.22-.98.51-.48.62.38-.1,1.5-.4,2.01-.29.51.11-.68.3-1.42.5,4.89-.56,5.31-1.42,5.6-2.25,1.26.08,2.21.08,3.05-.02.42-.05.82-.13,1.23-.23.2-.05.41-.11.61-.18.08-.03.15-.06.23-.09.11-.03.22-.06.34-.09.44.13,1.02.27,1.11.38.04.06-.04.11-.32.15-.14.02-.34.04-.59.06-.13,0-.27.01-.43.02-.21,0-.19,0-.39.03.12,0,.17,0,.27,0,.16,0,.35.01.55.02.41.01.9.03,1.45.04,1.09.04,2.37.05,3.6.03,2.47-.02,4.74-.18,4.82-.49.55.15,2.43-.04,2.89-.13,3.9-.12,4.25-.09,8.07-.35l-1.07-.05c1.47-.85,3.17-.34,6.24-.62l-.08.08c7.08.14,3.03-.45,10.02-.21l-.4-.46c.59-1.06,6.19.27,10.19-.26l-1.46-.22c2.2-.45,6.19,1.21,8.38,1.31.48.08-.75.16-1.42.23,5.75.54.74-.64,5.03-.81.8.34-1.05.86,1.89.92,1.48.3,8.5-1.18,12.5-.69-.89-.23-1.77-.46.24-.73,3.08-.2,8.37.66,11.12-.27.39.06.54.12.56.18,2.34-.31,7.62-.64,9.02-1.11,1.11.79,4.74.51,8.1.29,3.36-.23,6.44-.36,6.39.41,2.39.05,4.79.14,7.2.24l-.2.15c4.61.35,6.27.08,7.92-.2,1.07.16.28.26.18.34,6.77.62,7.5.58,13.2-.2l.57.5c.74-.15,3.12.09,6.1.57,2.98.46,6.6,1.16,9.95,1.35-.07.05-.22.12-.76.11,1.86.13,3.96.43,5.98.75,2.02.33,4.03.76,5.84,1.2,3.67.86,6.43,1.91,7.95,1.61.7.23,1.38.5,2.06.79l.46-2.62c-.86.23-1.7.48-2.52.72,1.55-.28,2.33-.35,2.59-.31l-.32,1.85c-.11-.12-.06-.16.09-.15l.27-1.53c-.44.32-2.34,1-.76.88-1.22.29-2.84.5-3.76.47-.92-.03-1.15-.18.32-.45h.48c.45-.57-1.46-.21-3.41-.2-2-.03-4.31-.07-4.2-.38-6.29.03-12.48.06-18.54-.11-6.05-.15-11.98-.59-17.84-.91l1.31.8-4.09-.25c-1.07-.22-1.41-.65,1.51-.47-1.51-.5-4.92.1-5.01.26-5.73-.55,2.28-.75.52-.85l-2.4-.05.54.11c-1.95.22-2.14.52-5.67.38-2.24-.19-1.14-.47-2.02-.52,0-.05-.29-.08-1.36-.04-1.74-.04-3.5-.04-5.19-.05l2.06.56c-2.28.31-4.84-.01-2.46.64-1.75-.49-6.54-.6-11.17-.72-4.63-.11-9.1-.21-10.16-.41-3.21.28-6.39.17-10.31-.03.97.16,1.53.81-1.85.64,1.27-1.3-6.18-.76-8.91-1.73,2.44.66-9.64.06-5.8,1-2.82-.11-.17-.5-2.31-.82-6.73.48-14.83-.25-23.15.13-.12.18,1.27.41-.5.72l-4.41-.75c-1.64.13-1.48,1.06-4.5.56.43.13,1.07.33-.03.43-16.31-.28-33.17,2.29-49.75,1.77,2.25.19.77.32-.93.45,1.11,0,0,.44.24.66l-6.94-.2c-1.21.74-7.39.55-8.07,1.23l2.18-.26c-2.85.94,4.18,1.38,3.82,2.36,3.19-1.07,8.65.67,13.91-.89,1.19.12-.98.37-.34.55,1.33-.5,2.95-.69,5.99-.69l-.34.12c8.49-.63,12.16-.45,21.72-.68l-.73-.44c2.06-.04,2.49.09,3.46.16,2.32-.84-5.76.25-3.66-.65,2.77.81,14.48-.68,16.36.36,3.16-.11-.95-.51,2.21-.62l.85.27.78-.41c2.07-.02,3.13.32,3.21.57-.5-.02-1.42.12-1.96.16,2.69.25,7.56-.34,8.48-.26l-3.04-.09c8.61-.53,19.12-.29,27.45-.84l-.63-.22c6.36-.34,5.09.26,12.07.22l-.25.05c1.4-.19,3.27-.26,5.18-.18-1.77.2,3.3.63.98.84,6.9-.18,3.41-.23,8-.88l1.04.41c1.57-.27,1.71-.44,5.21-.41-2.88.22,2.21.64-1.02.95,7.33,1.06,10.93-.53,14.3.68,3.38-.99-6.36-.63-4.47-.84-1.58-.36,2.8-.72,5.1-.61,2.33.05,4.03,1.26,9.84,1.3-.58-.02-.62.06-1.2.05,2.18.29,4.29-.28,6.96.25,1.53-.56,3.49.19,3.96-.58l-5.39-.04c3.05-.1,5.96-.89,10.98-.18-.4.14-1.91.27-2.95.34,1.46.31,2.84,0,4.36.31-.48.77-6.57-.18-9.86.29,1.56.39,6.21-.28,4.52.49,2.42-.97,5.78.45,9.82-.2l-.29.46c.64-.05,1.96-.21,3.13-.16l-2.14.53c3.26-.38,6.26.7,9.4.44-6.56-.1-1.46-.6-4.22-1,4.04-.22,5.18.08,6.46.45,1.27.36,2.68.79,7.17.63-1.21.08-4.57-.25-2.67-.48,1.71.09,3.97.25,5.02.48,5.93-.16-.91-.48,1.61-.8,2.02.56,2.91-.27,5.5-.46l.02.48c3.36.15,3.81-.09,4.17-.33.19-.12.32-.24.86-.31.53-.08,1.43-.08,3.04-.22-.87.35-1.79.66-2.73.9,1.17-.08,2.34-.26,3.44-.51-.2.22-.41.43-.62.65,2.39-.64,3.5-1,4.97-1.2l6.55-.89-5.81-3.35c-.76-.44-1.63-.96-2.81-1.49.65.68-.76.5-3.74-.36-1.97-.82,1.28-.19-3.03-1.16,1.03-.07,2.22-.22,3.97.79.24-.09,1.05.02,1.3-.05-2.16-1.14-5.67-1.66-7.23-1.91.6.13,1.32.29,1.68.44-2.15-.23-4.26-.32-6.35-.37-.95-.31-.16-.35.63-.39-1.26-.12-2.17,0-3.97-.19.52-.33.42-.75,3.06-.6-2.01-.11-3.88-.19-5.83-.34-.36-.22-2.9-.9-2.13-.93-3.18-.7-8.08-.47-12.57-.94-.24.07-.71.12-1.67.17-1.1-.03-2.03-.06-3-.11-.96-.05-1.93-.11-2.91-.17-1.97-.1-4.04-.16-6.43,0l-2.67-.84c-3.75-.04,3.63,1.08-2.62,1.01-4.44-.02-1.62-.69-3.16-.97-2.23.24-6.1.74-10.21.08,1.37-.11,2.43.04,3.71.03ZM308.62,355.3c.89-.1,2.66-.46,3.32-.18-1,.57-1.8.33-3.32.18ZM238.13,359.33c.65-.23,1.69-.25,2.87-.17-.84.12-1.8.19-2.87.17ZM265.61,358.46s-.06.02-.1.03c-2.01-.15-1.3-.09.1-.03ZM269.79,358.61c.42-.07.39-.14.21-.2-.29.13-1.23.14-2.29.12.3.12.84.2,2.08.08ZM356.3,362.38l.82.14c-1.85.11-1.33,0-.82-.14Z"/>
    <path class="st0" d="M246.06,357.97c.25.06.43.14.49.23.24-.04.28-.08.25-.13-.03-.02-.07-.04-.19-.07-.14-.03-.39-.03-.56-.04Z"/>
    <path class="st0" d="M383.92,354.81h.15c.08-.01.13-.04.15-.07l-.3.07Z"/>
    <path class="st0" d="M205.57,365.86c-.86-.01-1.34-.07-1.67-.14-.04.12.36.2,1.67.14Z"/>
    <path class="st0" d="M291.88,357.76l-2.67.11c1.29-.02,1.75.09,2.4.17-.06-.11-.57-.28.27-.28Z"/>
    <path class="st0" d="M315.01,360.91c.39-.06.83,0,1.21-.06l-.11-.22c-1.66,0-2.82.18-1.11.28Z"/>
    <path class="st0" d="M294.34,359.38c.21.41,1.88.28,3.75.22-.11,0-.22,0-.33,0,.55-.56-1.44-.39-3.42-.22Z"/>
    <path class="st0" d="M298.53,359.58c.58-.02,1.16-.02,1.73,0,.22-.23-.7-.05-1.73,0Z"/>
    <path class="st0" d="M275.08,358.3c.89.1.55-.52,1.06-.36.99-.52-5.92.66-1.06.36Z"/>
    <polygon class="st0" points="295.85 360.72 295.18 360.22 294.13 360.61 295.85 360.72"/>
    <path class="st0" d="M281.1,360.3l2.98.14c-.04-.08.33-.13.8-.17-1.84-.02-3.86-.12-3.79.03Z"/>
    <path class="st0" d="M284.89,360.27c.96.01,1.87,0,2.4-.08-.52,0-1.63.02-2.4.08Z"/>
    <polygon class="st0" points="291.77 360.85 290.89 360.74 288.78 360.69 291.77 360.85"/>
    <path class="st0" d="M249.01,360.78l-3.25.29c-.32.19.57.25,1.78.13.77-.15,1.98-.27,1.47-.42Z"/>
    <path class="st0" d="M258.89,361.83c-.88-.08-.94-.19-1.44-.34l-.08.62,1.53-.28Z"/>
    <path class="st0" d="M249.42,362.28c-.32.19-4.69.7-.58.48.32-.19,3.57-.45.58-.48Z"/>
    <polygon class="st0" points="200.41 364.48 201.24 364.42 201.04 363.41 200.41 364.48"/>
    <path class="st0" d="M157.81,372.42c2.11-.13,2.29-.37,2.46-.54.16-.18.29-.34,2.06-.53.87-.41-2.92.31-2.02-.08-2.34.67-3.75.58-2.5,1.15Z"/>
    <path class="st0" d="M160.31,371.27c.37-.11.77-.23,1.17-.38-.66.19-.98.3-1.17.38Z"/>
    <polygon class="st0" points="204.7 364.82 202.21 364.77 203.83 365.01 204.7 364.82"/>
    <path class="st0" d="M200,365.9l-.63-.61-1.45.69c.56-.07,1.64-.2,2.07-.08Z"/>
    <path class="st0" d="M301.74,354.02l-.19.16c.39.17.98.18,2.16.2l-1.97-.36Z"/>
    <polygon class="st0" points="335.3 353.58 334.71 353.59 335.82 354.14 335.3 353.58"/>
    <path class="st0" d="M363.84,353.2c-1.15-.09-2.51-.03-3.68-.12,2.53.03,3.95.87,3.68.12Z"/>
  </g>
  <g>
    <path class="st0" d="M430.26,359.92c.24.32.4.52.56.76.14.2.24.29.31.33.15.08.22-.08.32.07-.19-.44-.44-.88-.59-1.02-.15-.18-.28-.31-.38-.39-.2-.17-.28-.13-.32-.1-.08.08.07.4.09.35Z"/>
    <polygon class="st0" points="416.53 352.03 416.84 352.02 414.72 351.24 416.53 352.03"/>
    <path class="st0" d="M404.34,344.97c.81,1.27,4.49,2.41,6.54,3.89l.28.35,1.27.07c-2.68-1.46-6.31-3.09-8.08-4.31Z"/>
    <path class="st0" d="M398.56,339.95c.27.47-1.53-.58,1.48.93-.13-.11-.17-.15-.24-.22-.27-.14-.63-.35-1.24-.71Z"/>
    <path class="st0" d="M399.8,340.66c1.3.71-.73-.68,0,0h0Z"/>
    <path class="st0" d="M393.76,337.45l1.82.74c-.27-.34-1.77-1.23-1.15-1.01-1.81-.86-1.53-.52-.67.27Z"/>
    <path class="st0" d="M391.89,337.01l.93.4c-.12-.15-.34-.3-.93-.4Z"/>
    <path class="st0" d="M394.81,338.26l-1.98-.86c.19.24.1.45.9.41-.26.1.21.13,1.08.44Z"/>
    <path class="st0" d="M395.81,338.95c.88.67,2.06,1.45.23.71,3.3,1.74,3.07,1.03-.23-.71Z"/>
    <path class="st0" d="M403.35,345.26l1.17.9,1.22.42c-.61-.21-2.36-1.56-2.39-1.32Z"/>
    <path class="st0" d="M383.3,331.22c-.18.07.38.67.42.91l1.35.54c-.6-.45-1.79-1.21-1.76-1.45Z"/>
    <path class="st0" d="M383.72,332.13l-2.02-.81c1.68.96,2.04,1.02,2.02.81Z"/>
    <polygon class="st0" points="391.2 337.53 394.56 338.78 390.6 337.2 391.2 337.53"/>
    <polygon class="st0" points="376.06 327.26 377.31 327.53 375.13 326.97 376.06 327.26"/>
    <path class="st0" d="M371.18,324.75c.94.16-.87-1.01.06-.73-1.35-.65-2.59-1.02-3.71-1.34,1.14.44,2.28,1.08,3.65,2.07Z"/>
    <path class="st0" d="M365.67,322.09c.57.22,1.19.39,1.86.59-.61-.24-1.22-.44-1.86-.59Z"/>
    <path class="st0" d="M378.51,329.5c-.1-.16-.27-.53-1.29-1.19l.54.78c.23.13.48.27.74.41Z"/>
    <path class="st0" d="M377.78,329.11l-.02-.03c-.81-.45-1.37-.76-1.6-.89.21.12.69.39,1.62.92Z"/>
    <path class="st0" d="M378.69,329.6c-.07-.04-.12-.07-.19-.1.05.08.09.11.19.1Z"/>
    <path class="st0" d="M386.45,334.44c-1.22-.41-3.66-1.46-1.6.1.94.18-.24-.71,1.6-.1Z"/>
    <path class="st0" d="M379.37,330.58l1.97,1.18c.01-.12-.27-.46.34-.27l-2.31-.92Z"/>
    <polygon class="st0" points="378.31 330.16 379.37 330.58 378.64 330.14 378.31 330.16"/>
    <path class="st0" d="M368.99,324.25c-.96-.3-1.94-.77-3.04-1.31,1.13.67,2.32,1.33,3.46,1.94.22-.03.84.02-.42-.63Z"/>
    <path class="st0" d="M373.25,326.63c-.06-.03-.15-.06-.21-.08.1.1.19.16.21.08Z"/>
    <path class="st0" d="M355.12,317.56c.05.05.09.1.14.15.02-.02.04-.03.07-.05l-.21-.11Z"/>
    <path class="st0" d="M369.56,325.05c.84.53,1.41.71,1.97.86-.67-.3-1.38-.64-2.13-1.03-.1.02-.13.04.16.17Z"/>
    <path class="st0" d="M362.57,320.74c.42.31.91.64,1.43.98-.39-.35-1.21-1-1.43-.98Z"/>
    <path class="st0" d="M372.81,326.29s.09.03.14.05c-.24-.23-.23-.17-.14-.05Z"/>
    <path class="st0" d="M372.81,326.29c-.48-.19-.88-.28-1.28-.38.55.25,1.06.47,1.52.64-.09-.08-.18-.18-.24-.26Z"/>
    <path class="st0" d="M350.55,318.43c.49-.2,2.9.51,4.75,1.89,2.1.69,1.39-1.1-.03-2.61-.14.13-.21.27-2.36-.49.63.52,4.32,2.63,2.44,2.12-1.39-.57-1.94-.85-2.28-1.11-.3-.25-.47-.4-.97-.83.27.4-.4.28-1.38.05-.95-.21-2.24-.54-2.43-.23l2.7.97c-.01.12-1.07-.18-.43.23Z"/>
    <path class="st0" d="M359.14,319.64l.86.37c-.92-.54-1.54-1.01-2.67-1.91-1.49-.51-1.84-.52-1.99-.45l4.12,2.07-.31-.09Z"/>
    <path class="st0" d="M363.76,321.89c-.85.06-2.93-.78-1.92.25,2.46,1.2,1.87.54,3.42,1.12-3.98-1.92,1.24.37-1.49-1.31.81.33,1.51.67,2.18.99-.69-.41-1.34-.82-1.95-1.22.03.03.05.05.08.07h.02s0,.01,0,.01c.15.13.19.19,0,.07-.02,0-.06-.02-.09-.03-.05.04-.15.05-.25.05-1.11-.65-.13-.19.25-.05.02-.01.06-.01.08-.03,0,0,0,0-.01-.01l-4.07-1.78c.81.47,1.87.99,3.75,1.88Z"/>
    <path class="st0" d="M382.34,334.21c-.1-.1-.08-.12-.08-.16-.28-.09-.39-.11.08.16Z"/>
    <path class="st0" d="M380.88,333.11c.31.1.63.08,1.52.62.73.55-.1.18-.13.33.61.2,2.08.79.45-.34l-.3-.1c-1.48-.99-3.24-2.55-2.94-2.46.27.59.54,1.05,1.4,1.95Z"/>
    <path class="st0" d="M372.21,327.48l-3.36-1.53,1.49,1.2.02-.24c1.81,1.05,1.54.6,1.85.57Z"/>
    <polygon class="st0" points="354.83 317.18 355.47 316.98 353.26 316.65 354.83 317.18"/>
    <path class="st0" d="M352.1,315.95l.46-.22c-.17,0-.37,0-.59,0,.03.07.07.15.13.23Z"/>
    <path class="st0" d="M353.49,425.58l-.74.81c.36-.37.59-.62.74-.81Z"/>
    <path class="st0" d="M359.28,420.29v-.27c-.18.32-.24.48,0,.27Z"/>
    <path class="st0" d="M384.56,322.55c1.33.9,2.73,2.06,2.72,1.58l-.29-.58c-1.04-.32-1.8-.66-2.43-1Z"/>
    <path class="st0" d="M405.4,375.89c.12-.09.25-.19.38-.29.11-.4.21-.77.3-1.1-.21.42-.44.89-.69,1.39Z"/>
    <path class="st0" d="M406.11,377.89c-.53.51-1.06,1-1.63,1.48.42-.3.94-.77,1.63-1.48Z"/>
    <path class="st0" d="M365.81,413.3l.79-1.05c-1.62,1.07-.78.79-.79,1.05Z"/>
    <path class="st0" d="M340.33,310.65c2,.65,2.9.93,3.37,1.06-2.46-.81-6.41-2.11-3.37-1.06Z"/>
    <path class="st0" d="M352.66,420.11c-.43.5-.58.76-.5.82.45-.51.67-.83.5-.82Z"/>
    <path class="st0" d="M344.89,311.97c-.32-.11-.63-.21-.96-.32.11.07.2.13.16.14-.03,0-.14-.01-.4-.08.54.18,1.11.36,1.7.55.6.18.56.15-.5-.28Z"/>
    <path class="st0" d="M405.37,328.05c-.09-.08-.2-.15-.27-.23-.06.03.07.12.27.23Z"/>
    <path class="st0" d="M368.52,301.68c.4.19,1.05.53,1.65.85-.28-.19-.77-.45-1.65-.85Z"/>
    <path class="st0" d="M347.11,313.62c.43.14.31.08,0,0h0Z"/>
    <path class="st0" d="M340.8,312.65c-.36-.1-.76-.2-1.24-.3.54.12.94.22,1.24.3Z"/>
    <path class="st0" d="M335.96,307.21s.06.01.09.02c-.57-.19-.47-.16-.09-.02Z"/>
    <path class="st0" d="M346.48,313.55c.16.02.27.02.31,0-.13-.02-.25-.03-.31,0Z"/>
    <path class="st0" d="M347.51,313.77s.01.03.03.05c.4.09.61.14-.03-.05Z"/>
    <path class="st0" d="M346.58,313.44c.2.07.23.1.21.11.11.02.22.04.32.07-.11-.04-.27-.09-.53-.18Z"/>
    <path class="st0" d="M425.33,373.14c.06-.03.13-.06.2-.09.75-.72.39-.45-.2.09Z"/>
    <path class="st0" d="M410.47,329.46s-.07-.03-.11-.05c.04.03.09.07.12.1v-.05Z"/>
    <path class="st0" d="M413.78,331.37c-1.63-.54-2.33-1.1-3.29-1.86.13.57.24,1.15.34,1.73.98,0,1.95.06,2.95.13Z"/>
    <path class="st0" d="M345.65,427.19c-.4.32-.8.65-1.17,1.01-.19.18-.37.36-.55.55-.2.21-.31.32-.57.65.12-.24.24-.47.35-.7.1-.2.22-.4.33-.59.23-.37.46-.72.69-1.02.46-.61.88-1.06,1.16-1.37.56-.58.46-.66-.87.18.11.25-.15.73-.59,1.38-.22.32-.47.7-.75,1.11-.14.21-.28.44-.43.67-.2.33-.42.67-.63,1.03l-.03.24v.1s-.05-.01.02.02c.19.09.34.16.48.24.26.16.41.29.46.35.1.13-.17-.17-.23-.95l3.33,2.35s-.12.03-.19.03c-.09,0-.01,0-.04,0-.04,0,.05,0,.11.02.08.02.08.03.07.01-.03-.02.01-.17.06-.33.12-.34.3-.75.14-.99.38-.23.82-.46,1.29-.71-.36.27-.37.37-.68.61.62-.31,1.07-.62,1.41-.95.17-.16.31-.34.44-.52.12-.18.2-.34.3-.52.38-.71.82-1.53,2.49-2.87,1.19-.91,2.08-1.46,1.44-.66l2.22-2.48c.72-.63.71-.3,0,.33l3.6-3.47v.05c.38-.64,1.35-1.97,1.83-2.61,1.07-.71-.37.54-.02.44l1.82-2.11c1.07-.5-.39,1.3-1.84,2.55,2.82-.74,1.46-1.81,6.11-4.96l-1.81,1.88c1.76-.56,3.08-2.13,5.59-3.73-.69.27-5.19,3.04-3.19.78.7-.49,1.55-1.19,2.58-2.47.33.35,1.43-.79,2.89-2.1l.32.57c1.48-1.54,1.14-1.67,1.9-2.7,1.84-1.49,2.54-1.43,3.23-1.46,2.96-2.35-2.52,1.06.85-1.9,2.6-1.84,4.11-3.34,6.92-6.04,1.91-1.27-.06.56.69.18l1.23-1.69c.38-.31.36-.09.35.02,1.15-1.27-.3-.57,1.56-2.47.06-.97,4.66-2.98,6.39-5.83.69-.42,0,.55.35.56,1.31-1.65,1.98-2.27,2.55-2.91.57-.63,1.08-1.2,2.26-2.69.89-.59,1.78-1.24,2.63-1.97-2.02,1.41-.2-1.17.92-3.48-.68.5-1.27.91-1.64,1.19.77-1.1,1.49-2.24,2.19-3.4.37-.33.31.13.13.82.12-.26.23-.5.32-.69,1.05-1.04.9-.21.58.84-.4.33-.8.65-1.19.95-.29,1.04-.57,2.06-.14,2.13.12-.26.39-.71.71-1.18-.08.28-.11.47.02.41.14-.07.3-.5.57-1.14l1.13-.33-.09-.35c1.17-1.36,2.31-2.7,3.48-3.91.4-.77.93-1.68,1.35-2.56.44-.89.86-1.81,1.3-2.78.88-1.94,1.86-4.1,3.17-6.84-.26,1.57.59.7,1.1,1.06-1.37,1.16-2.12,4.31-4.13,6.87,1.03-1.33,1.06-.87.9-.46.94-1.7,1.79-3.43,2.57-5.19.37.36.94-.87,1.82-2.11-.71.27-.35-.73.23-2.17.57-1.42,1.23-3.3,1.38-4.49.34-.07.64.62-.49,3.36.95-1.38.98-2.52.94-3.6-.04-1.09-.14-2.12.37-3.64-.07.71-.2,1.07-.07,1.38,0-.85.16-2.26.26-3.36.12-1.08.19-1.95.36-1.44v.75c.08-1.23-.03-2.9-.63-4.57-.59-1.68-1.69-3.21-2.8-4.35-1.12-1.14-2.23-1.99-3.09-2.59-.87-.59-1.54-.92-1.8-.86.03-.12,1.11-.4,1.45-.35-2.75-1.08-5.51-1.86-8.27-2.38,1-.24-.5-3.21,3-1.54-.88-.69-2-1.52-4.17-2.4.63.44,1.12,1.83.21,1.39-2.08-2.02-1.49-1.31-4.29-3.42.94.61-.66,1.12-2.23.38.32-.05.33-1.09.96-.94-1.48-.26-2.96-.48-4.43-.69,1.07.23.55-.81-.23-1.47.33.37-3.44-1.45-4.56-1.78l1.6.94c-4.48-2-5.06-.35-9.56-2.09.62-.01,1.86-.84-.42-1.82-1.27.15-5.63.93-9.79.12l-.68-.55-3.23-.55c2.17-.32,8.19-.38,11.42.02-1.65-.84-.36-.54-2.98-1.38-.83-.6,1.58.02,2.35.27-2.01-.76-4.04-1.48-6.08-2.17.08.71-4.92-.74-4.83-.11,2.3.39,4.6.82,6.89,1.3.06.73-4.39.58-8.72-.66-1.05-.55,1.14-.94,1.11-1.18-.63.06-4.29-.65-4.66-.89l1.96.11c-1.2-.43-2.26-.45-3.37-.52-.25-.02-.59-.05-.95-.09-.35-.04-.7-.09-1.07-.16-.74-.14-1.52-.36-2.48-.72-.64-.15-1.66-.58-2.6-.93-.93-.35-1.75-.62-1.73-.42,1.36.65,2.33,1.63,2.83,2.48.15.22.19.41.34.63.14.22.25.42.33.6.17.36.24.64.17.77-.17-.06-1.43-.55-2.79-1.07-1.49-.56-3.42-1.27-4.41-1.68-.37-.16-.67-.31-.9-.44-.17-.11-.27-.21-.33-.3-.11-.18-.02-.32.1-.45.24-.27.7-.49-.5-.98.15.2-.65.24-.98.24-1.49-.46-.3-.59-3.01-1.08.71.77-5.73-1.27-.28.46-2.21-.3-3.06-.78-6.12-1.41,1.05.41,1.27.78,1.18,1.04-.34.17.11.64-.5.59-.36-.17-.93-.4-1.52-.62-.48-.18-1.07-.4-1.45-.54-2.43-.57-4.58-1.12-6.74-1.66-2.13-.53-4.42-1.11-6.33-1.46-.26-.07-.84-.23-1.46-.41-1.09-.29-2.18-.58-2.47-.77.02.09.38.3-.66.07-1.92-.55-1.37-.42-.92-.35.49.09.87.1-.98-.42,1.31.47-.58.23-1.56-.23.84.31,1.9.7,2.79.91.9.23,1.49.28,1.77.25.77.27,1.38.51,1.75.69.07.04.15.07.23.12l.08.05c.13.05.27.11.41.16.47.19,1,.4,1.59.63.71.28,1.56.62,2.51.99.67.27,1.21.35,1.43.46-.13.04-1.82-.2-3.4-.76-1.58-.51-2.97-1.09-2.59-.86-.21.02-.41.05-.57.1-.04.01-.09.02-.11.04l-.02.11c0,.08-.03.15-.01.23,0,.31.24.62.6.81.73.38,1.69.54,2.67.76,1.97.41,4.14.92,6.04,1.51,1.45.43,2.82.84,4.57,1.36,1.01.32,1.33.44.8.36-1.64-.41-3.7-.98-5.88-1.62-2.15-.63-4.4-1.31-5.78-1.68-2.16-.76-2.51-.95-2.41-.96.08-.01.6.12-.34-.11-.14-.08-.24-.1-.29-.09-1.24-.38-2.66-.82-3.73-1.11-1.06-.35-1.81-.31-1.53-.13-.37-.15-.54-.29-.38-.34.4,0,.87.17,1.42.32,1.1.32,2.5.81,3.97,1.39,1.47.58,3.02,1.24,4.37,1.81,1.35.56,2.48,1.03,2.98,1.34.91.29,2.14.67,2.98.93.99.3,1.76.5,2.01.51l-1.96-.68c.63.07,2.27.57,3.54.96,1.29.39,2.25.68,2.06.53,1.53.47,3.16.98,4.93,1.53,1.42.45,2.39.79,2.82,1.09l-1.95-.21c.31.04.29-.06.06-.2-.24-.14-.69-.34-1.42-.54,1.05.3.93.46,1.34.77.37.29,1.21.73,2.89,1.05-.09-.19-.11-.35-.05-.46,1.21.35,2.61.72,3.65.99,1.07.28,1.76.47,2.16.76.25-.22.2-.22.1-.26-.07-.03-.24-.12.27-.27-.69.16-1.27-.1-1.86-.37-.29-.13-.56-.25-.91-.34-.34-.08-.79-.16-1.24-.12.89-.03.98-.09.93-.18,0-.08-.17-.2,1.19.03-.95-.2-1.57-.28-1.77-.45-.24-.06-.75-.19-1.08-.27,0,0,.01,0,.03,0-.03,0-.05,0-.08-.01-.19-.05-.23-.06-.03,0-.28-.03-.64-.08-1.12-.17-2.77-.7-4.71-1.46-6.96-2.12-.09-.07.39.06.98.23.6.17,1.31.37,1.82.48l-3.38-1c1.5.39,2.36.57,3.37.82.99.24,2.08.55,3.52,1l-.75-.32c1.41.33,1.91.43-.21-.21.27.07-1.12-.34-2.2-.66-1.08-.31-1.75-.51.17.05-.69-.22-1.42-.33-2.17-.5-.73-.16-1.61-.36-2.14-.86l1.21.35.04-.13s0-.1.06-.1c.07-.04.12-.07.15-.1.07-.06.07-.11.03-.14-.07-.07-.27-.08-.29-.09-.07-.04.66.09,3.23.88.73.24,1.48.47,2.23.72-.07-.05-.15-.1-.19-.13-.02-.03.05-.04.17-.03.24.02.78.14,1.81.44l2.55.97c.03-.06,1.24.31,2.1.57.87.26,1.44.42.71.05,2.85,1.18,3.68,1.42,4.34,1.52.62.09,1.23.06,2.04.34l-.92-.73c1.12.28,1.85.3,3.3.41l-.27-.52c.35-.02.81.06,1.31.18.28.08.57.16.87.24.41.12.84.25,1.28.38,1.75.54,3.66,1.18,5.61,1.7-.31.09-1.28-.22-1.96-.5,4.37,2.18,9.99,2.11,13.9,4.28,1.08.21,1.81.53,2.49.9-.1-.03-.18-.06-.26-.07.1.04.26.1.42.16.43.24.86.5,1.34.75-.39-.26-.77-.5-1.11-.67.79.28,2.01.68,3.22,1.03l.32.64c.1.03.17.06.27.09,1.08.61,1,.15.53-.43.62.16,1.19.28,1.65.34.64,1.09,3.15,1,4.11,2.29.96-.06,5.93,2.17,6.87,1.71,0,.12.31.32-.31.04,1.23.67,2.43,1.36,3.65,1.71l.24.81c1.01.22,2.02.46,3.03.74,1.39,1.26,1.87,1.86.11,1.3,2.03.83,2.79,1.29,3.47,1.71.69.42,1.31.77,2.96,1.69l-.39.19c1.03.82,2.99,1.89,3.28,2.68.37.65,1.14,1.61,1.8,2.88.65,1.27,1.05,2.89.96,4.88-.07,2.04-.42,4.22-1.09,6.25-.66,2.06-1.6,3.86-2.67,5.47.86-.38.34.35-.35,1.24-.68.89-1.53,1.92-1.23,2.28-.47.24-1.16,1.04-.71-.12-.9,1.71-1.82,2.84-2.62,3.84-.4.5-.78.97-1.12,1.47-.35.51-.64.99-.99,1.7-.53.2.28-.96-.13-.73-.18.3-.68,1.2-1.07,1.44-.39.24.19-.63.54-1.23-1.37,1.72-1.83,2.78-1.97,3.5-.13.72.1,1.1.34,1.46-1.52,1.45-2.06,2.27-2.58,3.73-.66.37-1.59,1.07-.11-.86-.22.26-.68.79-1.26,1.39-.57.59-1.28,1.26-2.01,1.9-1.44,1.26-2.89,2.49-2.73,2.8-.45.16-1.59,1.28-1.82,1.61-2.42,2.25-2.58,2.39-4.81,4.61l.7-.53c-.36,1.41-1.75,1.94-3.55,3.68v-.11c-2.33,1.7-2.78,2.11-3.21,2.54-.44.43-.86.82-3.34,2.35l.54.18c.22,1.13-4.38,2.7-6.68,5.17l1.1-.57c-1.17,1.43-4.8,2.23-6.27,3.35-.36.2.38-.53.76-.94-4.02,2.71-.06.88-2.65,3.36-.72.18.06-1.21-1.78.35-1.09.59-4.45,5.49-7.3,7.22.71-.29,1.41-.59.32.68-1.81,1.77-5.73,3.93-6.84,6.08-.28.17-.42.2-.47.16-1.27,1.48-4.4,4.42-5.03,5.47-.35-.01-.71.1-1.18.33-.47.24-1.02.61-1.62,1.13-.59.52-1.24,1.2-1.75,2.14-.53.92-.76,2.27-.47,3.36l.37,1.37,1.26-.16c.76-.1,1.61-.49,2.14-1.06.27-.28.47-.58.62-.87.08-.14.14-.28.19-.41.03-.09.06-.17.09-.25.04-.16.17-.27.25-.38.12-.14.24-.26.35-.34.22-.16.42-.19.57-.07.52-.67,1.12-1.28,1.78-1.82.33-.27.68-.52,1.04-.76.59-.37.88-.63,1.3-.93l-.04.22c3.13-2.07,4.06-3.09,4.97-4.13.79-.39.33.08.32.18,4.82-2.74,5.27-3.03,8.84-6.17l.68.15c.46-.47,2.28-1.4,4.48-2.7,2.21-1.3,4.8-2.97,6.86-4.78-.01.08-.05.22-.36.53,2.35-2.01,5.54-3.85,8.26-5.46,1.36-.81,2.61-1.56,3.57-2.29.98-.73,1.67-1.44,1.89-2.12l3.15-2.61c-4.46,2.79.22-1.08-1.75-.14,1.66-1.22,4.74-2.52,2.69-1.02l-.38.15c-.24,1.32,5.6-3.41,5.83-2.83,2.12-1.52,4.21-3.04,6.27-4.6,2.07-1.59,4-3.1,6.03-4.56,4.03-2.91,8.11-5.62,12.1-8.31l-1.33.02,2.81-1.85c.83-.35,1.3-.19-.7,1.13,1.27-.36,3.15-2.53,3.12-2.7,4.08-2.35-1.06,1.73.15.94l1.6-1.13-.41.17c.57-.55.89-.95,1.33-1.4.44-.46,1.06-.98,2.22-1.95,1.53-1.15,1.03-.31,1.61-.79.03.04.24-.11.84-.77.56-.52,1-.94,1.5-1.35.49-.41,1.02-.8,1.55-1.19-.54.16-1.07.33-1.61.52,1.18-1.35,3.11-2.23,1.16-1.68.71-.21,1.88-.82,3.31-1.63,1.43-.82,3.13-1.86,4.72-3.13.4-.33.8-.7,1.18-1.04.38-.38.73-.8,1.08-1.21.66-.94,1.21-2.06,1.26-3.13.06-1.05-.21-1.98-.55-2.64-.33-.7-.64-1.06-.78-1.33-1.2-1.12-2.37-1.84-3.57-2.64-1.21-.79-2.38-1.57-3.72-2.51.6.55.64,1.35-1.64-.26,1.6-.57-3.97-3.28-5.41-5.26,1.4,1.58-6.88-3.98-4.64-1.56-1.94-1.28.14-.5-1.22-1.68-5.03-2.38-10.39-6.42-16.32-9.74-.18.1.66.91-.73.39l-2.62-2.61c-1.19-.62-1.58.22-3.37-1.59.22.31.55.77-.25.35-11-7.74-23.84-13.46-35.04-21.36,1.46,1.18.36.62-.88-.04.77.51-.23.37-.18.67l-4.72-3.28c-1.22.09-5.44-2.8-6.26-2.51l1.66.73c-2.47-.44,2.21,3.02,1.45,3.71,2.77.5,5.64,4.41,10.07,5.46.75.64-.87-.13-.53.32,1.17.18,2.4.75,4.48,2.13l-.3-.05c6.15,3.34,8.56,5.18,15.2,9.39l-.26-.7c1.42.91,1.65,1.22,2.27,1.73,2.04.37-4.06-2.45-2.14-2.23,1.45,1.95,10.24,6.11,10.96,7.85,2.22,1.36-.37-.87,1.85.49l.43.61.76.02c1.42.94,1.96,1.71,1.89,1.96-.34-.24-1.05-.56-1.43-.77,1.7,1.46,5.43,3.16,6.03,3.64l-2.07-1.45c6.27,3.45,13.62,8.06,19.8,11.06l-.33-.46c4.69,2.34,3.47,2.35,8.41,5.24l-.2-.07c1.08.43,2.43,1.16,3.72,2.06-1.34-.58,1.97,1.93.24,1.12,2.51,1.41,3.09,1.7,3.52,1.85.42.16.75.08,2.32.92.11.27.18.55.26.8.45.29.73.43,1,.75.23.31.68.9.35,2.04.07-.95-.2-.57-.37-.32-.11.13-.25.22-.33.18-.08-.03-.09-.2-.16-.57-.07.2-.16.38-.27.53-.08.15-.24.32-.36.48-.1.15-.3.34-.46.51-.17.18-.3.36-.5.52-.69.68-1.43,1.34-2.09,1.91-1.34,1.14-2.5,1.98-3.99,2.24-.9,1.21.3.58,1.54-.17,1.25-.75,2.5-1.68,1.94-1.16,1.26-.43-1.44,1.88-3.12,2.83-.82.53-1.69.71-2.87,1.19-.59.24-1.26.57-2.01,1.07-.79.55-1.5,1.17-2.36,1.96.35-.31.32-.39.66-.71-1.45,1.01-2.28,2.57-4.25,3.42-.63,1.17-2.42,1.56-2.26,2.42,1.2-.89,2.44-1.73,3.51-2.61-.91.85-1.8,1.68-2.84,2.64-1.08.96-2.37,1.97-4.21,2.95.18-.32,1.09-1.18,1.73-1.76-1.14.49-1.86,1.44-3.04,1.96-.15-.86,4.39-3.19,6.32-5.18-1.28.44-3.95,3.32-3.29,1.85-1.02,2-4.06,2.57-6.3,5.15l-.09-.51c-.39.36-1.14,1.17-1.93,1.72l1.07-1.51c-1.88,1.97-4.48,2.64-6.38,4.43,4.33-3.24,1.31-.27,3.35-1.34-2.49,2.22-3.42,2.56-4.48,2.91-1.04.35-2.27.76-5.05,3.16.69-.64,3.13-2.15,2.02-.98-1.19.84-2.68,1.8-3.51,2.13-3.75,2.99.89-.06-.56,1.41-1.66.53-1.74,1.61-3.36,3.01l-.29-.38c-4.68,2.92-.6,1.68-4.92,4.19l1.36-1.74-2.05,1.6.14-.75c-2.11,1.91-2.91,2.31-5.32,3.7.72-.07.18.93-1.89,2.29-1.57.69.54-.91-2.36,1.1.49-.69,1.02-1.5,2.55-1.97.04-.22.49-.68.54-.89-1.69.7-3.9,2.47-4.93,3.19.42-.26.92-.57,1.21-.68l-3.83,3.44c-.76.31-.32-.17.11-.65-.82.63-1.27,1.22-2.49,2.13.09-.55-.22-.82,1.44-2.21l-3.71,3.14c-.36.05-2.29,1.04-1.86.56-2.31,1.34-4.91,4.37-8.01,6.02-.11.16-.38.42-.97.87-2.79,1.67-5.64,2.81-8.7,5.42l-2.29.65c-2.53,1.86,3.05-.96-1.15,2.15-2.93,2.27-1.48.28-2.67.86-.33.34-.72.74-1.15,1.19l-.16.17s-.03.05-.03.07c-.14.12-.28.23-.42.36-.3.25-.61.53-.92.82-.62.58-1.25,1.21-1.89,1.89-.31.35-.63.7-.95,1.06l-.48.55c-.21.26-.41.53-.62.8.09-.2.21-.39.32-.58.11-.2.22-.36.29-.47.17-.25.34-.49.52-.71.36-.45.75-.87,1.16-1.33ZM367.72,412.31c-.48.57-1.36,1.79-1.95,1.94.25-.97.91-1.21,1.95-1.94ZM409.48,371.92c-.2.53-.76,1.16-1.47,1.83.38-.59.85-1.21,1.47-1.83ZM340.8,311.5c-.09-.03-.15-.05-.22-.07,1,.23.57.13.22.07ZM340.48,311.57c.65.2,1.13.33,1.58.44-1-.28-1.38-.43-1.46-.49-.91-.25-1.37-.35-.12.05ZM436.07,369.22l-.59.38c1.05-1.16.81-.77.59-.38Z"/>
    <path class="st0" d="M406.05,377.64c-.2.12-.31.11-.41.09-.13.28-.06.35.41-.09Z"/>
    <path class="st0" d="M365.66,413.49l.1-.06c.04-.06.05-.1.05-.14l-.15.19Z"/>
    <path class="st0" d="M346.65,307.89c.97.27,1.57.47,2,.65-.1-.13-.62-.33-2-.65Z"/>
    <path class="st0" d="M350.64,314.86l-.94-.27c.34.12.08.11-.01.15.34.03.78.05.95.12Z"/>
    <path class="st0" d="M358.68,321.98c.31.09.61.3.92.39l.02-.24c-1.23-.6-2.17-.86-.94-.15Z"/>
    <path class="st0" d="M346.83,314.88c-.98,0,.36.43,1.47.86-.06-.03-.12-.05-.17-.08,1.35,0,.18-.33-1.3-.78Z"/>
    <path class="st0" d="M348.56,315.84c.34.13.66.27.92.41.45-.04-.27-.17-.92-.41Z"/>
    <path class="st0" d="M344.04,312.72c-.4-.07,3.45.9,2.52.67,1.7.44.48.1-1-.31-1.49-.42-3.15-.88-1.51-.36Z"/>
    <path class="st0" d="M344.43,315.24c.22-.08.47-.15.74-.2l-1.77-.35,1.03.55Z"/>
    <path class="st0" d="M335.18,310.98l1.42.69c.36.07.86.22,1.34.38-1.2-.5-2.03-.92-2.76-1.08Z"/>
    <path class="st0" d="M337.94,312.06c.61.25,1.29.53,1.97.74-.37-.15-1.17-.48-1.97-.74Z"/>
    <polygon class="st0" points="340.81 313.83 340.51 313.58 339.05 312.92 340.81 313.83"/>
    <path class="st0" d="M319.27,303.5c.28.03.55.2.87.32-1.37-.46-3.04-1.04-3.29-1.17.59.16.38.18,2.42.85Z"/>
    <path class="st0" d="M314.22,303.55c-.32-.09-.16,0-.21.06l-1.17-.32c.44.02.9.12,1.38.27Z"/>
    <path class="st0" d="M312.68,301.29s.43.06.54.13c.11.08,0-.02-.94-.31.07.02-.28-.02-.46.06-.09.02-.12.07-.01.07.11,0,.37-.02.87.06Z"/>
    <path class="st0" d="M353.31,310.91l-.68-.14.28.3.43.36.85.71c-.19-.22-.37-.43-.54-.65-.08-.11-.17-.21-.24-.32l-.09-.26Z"/>
    <path class="st0" d="M388.69,318.58c-2.92-1.38-.93.3-3.54-1-.79-.04,2.13,1.06,1.34.99,1.9.45,2.79.96,2.21.01Z"/>
    <path class="st0" d="M386.49,318.57c-.3-.07-.63-.14-.98-.2.55.13.81.18.98.2Z"/>
    <polygon class="st0" points="362.14 297.68 360.41 296.54 361.43 297.46 362.14 297.68"/>
    <path class="st0" d="M358.29,296.54l-.13-.8-1.36-.04c.43.19,1.25.55,1.5.84Z"/>
    <path class="st0" d="M372.8,409.53v-.22c-.33.08-.7.39-1.43,1l1.43-.78Z"/>
    <polygon class="st0" points="351.94 427.8 352.32 427.49 351.25 427.64 351.94 427.8"/>
    <path class="st0" d="M351.03,421.64c-.82.52-1.68,1.29-2.5,1.84,1.68-1.33,3.13-1.38,2.5-1.84Z"/>
  </g>
  <g>
    <path class="st0" d="M350.36,353.13c-.31-.06-.23.36-.28.44.53-.05.28-.54.28-.44Z"/>
    <path class="st0" d="M346.85,347.87l.12-.16c-.29.1-.57.24-.85.36.24-.07.48-.14.73-.2Z"/>
    <path class="st0" d="M341.83,347.89c.49.68,1.76-.22,2.66.03l.15.16.41-.58c-1.12.08-2.47.54-3.22.39Z"/>
    <path class="st0" d="M339.26,346.49c.16.27-.5.26.56.06-.06-.03-.07-.04-.11-.06-.09,0-.23.01-.45,0Z"/>
    <path class="st0" d="M339.71,346.49c.48-.04-.32-.22,0,0h0Z"/>
    <path class="st0" d="M337.56,346.68l.64-.24c-.13-.16-.7-.2-.49-.32-.66.13-.53.29-.15.57Z"/>
    <path class="st0" d="M336.94,347.19l.34-.1c-.06-.07-.15-.09-.34.1Z"/>
    <path class="st0" d="M337.99,346.88l-.71.22c.09.12.1.35.33-.08-.06.21.08,0,.38-.14Z"/>
    <path class="st0" d="M338.39,346.99c.33.15.77.24.17.5,1.18-.13.96-.62-.17-.5Z"/>
    <path class="st0" d="M341.63,348.64l.51.18.42-.26c-.21.13-.98-.13-.93.09Z"/>
    <path class="st0" d="M333.44,346.23c-.04.15.22.41.27.6l.5-.16c-.25-.11-.74-.21-.77-.44Z"/>
    <path class="st0" d="M333.71,346.84l-.75.25c.67.04.79-.08.75-.25Z"/>
    <polygon class="st0" points="336.81 347.98 338 347.45 336.58 347.99 336.81 347.98"/>
    <polygon class="st0" points="330.52 346.21 330.96 345.85 330.18 346.4 330.52 346.21"/>
    <path class="st0" d="M328.53,346.35c.32-.31-.49-.46-.15-.66-.55.09-1.02.38-1.42.65.44-.17.94-.18,1.57.02Z"/>
    <path class="st0" d="M326.28,346.74c.22-.1.44-.25.68-.41-.24.1-.46.21-.68.41Z"/>
    <path class="st0" d="M331.67,347c-.06-.09-.17-.33-.6-.43l.3.42c.09,0,.19,0,.3,0Z"/>
    <path class="st0" d="M331.38,347.01h-.01c-.33-.02-.55-.03-.65-.03.08,0,.28.01.66.03Z"/>
    <path class="st0" d="M331.75,347s-.05,0-.08,0c.03.04.05.06.08,0Z"/>
    <path class="st0" d="M334.9,347.56c-.44.23-1.35.47-.48.85.32-.29-.18-.5.48-.85Z"/>
    <path class="st0" d="M332.12,347.54l.79.1c-.01-.11-.16-.28.06-.4l-.86.29Z"/>
    <polygon class="st0" points="331.72 347.67 332.12 347.54 331.82 347.5 331.72 347.67"/>
    <path class="st0" d="M327.77,346.99c-.35.21-.74.27-1.18.35.49.03.99.02,1.45-.01.06-.14.25-.4-.27-.34Z"/>
    <path class="st0" d="M329.55,347s-.05.02-.08.03c.05.03.09.04.08-.03Z"/>
    <polygon class="st0" points="322.53 347.87 322.6 347.94 322.61 347.87 322.53 347.87"/>
    <path class="st0" d="M328.13,347.4c.36.06.56-.06.76-.2-.26.06-.54.1-.85.13-.03.06-.03.1.09.07Z"/>
    <path class="st0" d="M325.12,347.1c.18.06.38.11.6.15-.19-.11-.55-.27-.6-.15Z"/>
    <path class="st0" d="M329.34,346.91s.03-.02.05-.02c-.12-.09-.1-.04-.05.02Z"/>
    <path class="st0" d="M329.34,346.91c-.18.07-.32.18-.46.28.21-.05.41-.1.58-.17-.05-.03-.09-.07-.12-.11Z"/>
    <path class="st0" d="M321.61,350.74c.02-.4.85-.87,1.66-.53.71-.38.05-1.62-.67-2.27,0,.17.02.33-.71.65.29.18,1.74.31,1.14.74-.98.32-.84-.04-1.35-.19.47.45-1.21.85-.92,1.55l.87-.34c.03.11-.28.33-.02.4Z"/>
    <path class="st0" d="M324.03,347.8l.3-.09c-.36-.02-.63-.14-1.13-.39-.49.25-.58.41-.6.54.51-.04,1.02-.08,1.52-.14l-.1.07Z"/>
    <path class="st0" d="M325.71,347.52c-.17.46-.89.74-.37,1.14.9-.16.6-.45,1.15-.71-1.58.32.43-.3-.76-.38.31-.12.59-.18.86-.23-.3-.02-.59-.04-.87-.08.02,0,.03.01.04.02h0s0,0,0,0c.08.04.11.07.02.05,0,0-.02.01-.03.01,0,.06-.03.12-.05.17-.43-.03-.09-.1.05-.17,0-.02.01-.04.01-.07h0s-1.43.43-1.43.43c.32.02.7-.05,1.38-.19Z"/>
    <path class="st0" d="M333.59,349.32s-.04-.07-.05-.1c-.1.05-.14.09.05.1Z"/>
    <path class="st0" d="M332.98,349.05c.11-.06.2-.23.56-.18.31.13,0,.21,0,.35.22-.11.76-.29.09-.52l-.11.06c-.6-.16-1.39-.7-1.28-.76.18.39.33.67.73,1.05Z"/>
    <path class="st0" d="M329.41,348.24c-.43.09-.85.19-1.28.29l.68.33-.05-.22c.73.05.56-.21.65-.39Z"/>
    <polygon class="st0" points="322.36 347.67 322.47 347.2 321.84 347.92 322.36 347.67"/>
    <polygon class="st0" points="320.79 347.9 320.8 347.5 320.41 347.78 320.79 347.9"/>
    <path class="st0" d="M229.15,349.98l-.37.1c.17-.03.29-.06.37-.1Z"/>
    <path class="st0" d="M231.81,350.11l.07-.19c-.13.1-.18.18-.07.19Z"/>
    <path class="st0" d="M281.22,347.86c-.51-.4-1.07-1.01-1.03-.56l.14.44c.38-.05.66.01.9.12Z"/>
    <path class="st0" d="M253.72,348.67l.15.14c.14-.14.27-.28.39-.4-.16.08-.34.17-.53.26Z"/>
    <path class="st0" d="M253.25,350.45l-.69-.31c.15.1.37.21.69.31Z"/>
    <path class="st0" d="M214.55,350.11l-.45.43c.67.01.39-.22.45-.43Z"/>
    <path class="st0" d="M304.39,348.78c-.46-.17-.82-.24-1.14-.27.55.25,1,.63,1.14.27Z"/>
    <path class="st0" d="M230.35,345.42c-.23.07-.33.15-.32.25.23-.07.37-.14.32-.25Z"/>
    <path class="st0" d="M301.92,348.5c.08.04.16.07.24.11.34-.07.67-.13,1.08-.1-.41-.19-.87-.3-1.32-.01Z"/>
    <path class="st0" d="M162.1,350.08s-.09-.02-.12-.04c0,.06.04.06.12.04Z"/>
    <path class="st0" d="M146.35,348.11c.14-.06.37-.11.59-.17-.11,0-.29.04-.59.17Z"/>
    <path class="st0" d="M314.37,348.2c.34-.05.05-.05,0,0h0Z"/>
    <path class="st0" d="M316.12,349.82c-.07.05-.12.12-.12.22.02-.11.07-.18.12-.22Z"/>
    <path class="st0" d="M298.45,351.14h-.03c.1.09.08.07.03,0Z"/>
    <path class="st0" d="M314.89,348.37c-.13-.05-.28-.08-.44-.1.07.03.21.06.44.1Z"/>
    <path class="st0" d="M314.81,348.17c.12,0,.21.02.3.02.04-.07,0-.12-.3-.02Z"/>
    <path class="st0" d="M313.89,348.25c.19-.02.38,0,.55.02-.07-.03-.1-.05-.08-.06-.1,0-.24.02-.47.05Z"/>
    <path class="st0" d="M190.13,347.67s-.05-.03-.07-.05c-.35.16-.2.14.07.05Z"/>
    <path class="st0" d="M271.96,351.76s.03-.01.04-.02c-.02,0-.04-.01-.05-.02v.04Z"/>
    <path class="st0" d="M270.7,351.99c.57-.5.86-.41,1.25-.27l-.32-1.28-.93,1.55Z"/>
    <path class="st0" d="M222.76,349.95l.86.41c-1.08.62-1.83.38-1.03.95.17-1.36,3.4-.07,3.57-1.42l.57.3c-.16-.02-.19.06-.36.05,1.1.68.87-.98,2.29-.73.5.12.84.33.49.48l1.13-.29c.32.04.24.27-.09.23l1.7-.04v.04c.24-.2.8-.51,1.07-.64.43.21-.22.14-.12.31l.95-.29c.37.37-.42.68-1.07.6.83,1.39.79-.31,2.66.56l-.89.14c.54.79,1.25.54,2.23,1.06-.23-.26-1.96-1.29-.93-1.59.28.11.66.18,1.22-.07-.01.48.53.39,1.2.38l-.07.64c.74-.16.69-.48,1.13-.75.81.09.96.6,1.13,1.02,1.29.15-.86-.83.68-.89,1.07.29,1.84.06,3.15-.28.75.25-.15.39.11.58l.69-.48c.16.02.1.17.07.25.57-.18.08-.64.97-.78.28-.69,1.77,1.1,2.91.34.26.19-.15.39-.08.64,1.54-.46,1.31-.33,2.59-.99l1.03.46c-.75-.51.27-1.04,1.17-1.47-.26-.24-.49-.45-.64-.56l1.41-.29c.16.11,0,.33-.23.58.1-.05.19-.1.26-.14.48.26.2.61-.17.96l-.48-.41c-.36.37-.71.79-.66,1.17.09-.07.27-.13.46-.15-.1.1-.16.19-.12.26.04.07.2-.07.43-.22l.27.72.09-.28,1.79.52c1.34-.65,2.53-1.63,4.61-1.79-.54.49-.17.84-.23,1.46-.52-.69-1.61.17-2.66-.02.55.1.41.39.26.48l1.94-.47c-.08.5.38.4.86.65-.31-1.02,1.46-.57,2.25-.82.02.34-.18.67-1.12.52.99.82,1.43-1.08,2.4-.37-.23,0-.35-.07-.45.1.56-.26,1.86.07,1.53.34h-.23c1.52.22,4.66.33,4.95-.5,0,.11-.27,1.01-.38,1.17l2.94-2.66c-.29.71.51,2.51-.79,2.83.36.13.8.28,1.59.08-.24-.12-.55-1.1-.2-1.14.88.88.62.48,1.72,1.25-.36-.18.13-1.3.72-1.22-.1.16-.03,1.13-.25,1.24l1.54-1.02c-.38.18-.13.95.18,1.29-.14-.23,1.27.11,1.67.02l-.61-.3c1.65.28,1.74-1.47,3.38-1.32-.21.22-.58,1.4.25,1.59.42-.55,1.86-2.67,3.33-3.04l.26.34,1.13-.32c-.73.83-2.78,2.55-3.89,3.2.61.3.15.4,1.09.42.31.33-.53.44-.81.44l2.17.32c-.06-.68,1.7-.59,1.64-1.16l-2.4.58c-.06-.68,1.46-1.83,2.99-1.65.38.29-.35,1.18-.32,1.41.21-.22,1.48-.38,1.61-.21l-.67.33c.85.29,1.43-.83,2.43-.15.35.06,1.03.91,1.1.51-.55-.79-.57-3.16-.16-3.73.12.06,1.83.8,2.22,1.2.56.62-.93,1.4-.45,1.94.03-.18.36-.4.5-.47.37.17-.17.56.64.51.16-.68,1.65.11.4-.56.8-.17.84.17,1.77.16-.28-.45.88-1.47,1.67-1.65-.05.17.12.4.21.51,1.62.1,2.48.42,4,.45.14.17.87.37.55.66.22-.12.42-.35.89-.36.9.59-1.04.09-.36.8.06-.4,1.21-.53,1.88-.79-.21-.61-1.54-.12-2.21.12,0-.85,1.17-1.71,2.73-2.12,1.25-.22.55.54.76.42,2.35.11,1.97-1.49,3.92-.94.79.51.07,1.07.25,1.45-1.02.24-1.58-.3-2.27-.27l.86.24c-.32.18-1,.33-1.38.18.66.48,3.98.01,5.82.36.32-.19.86-.41.59-.61l-.57.1c-.55-.41,1.05-.65.31-.82.75-.35,1.58-.87,2.66-.7l.24.6c-.04-.17-.73-.31-1.02-.11.43-.29,1.71.71,2.14-.13l-.79-.37c.74-.36,1.63-1.08,2.58-.99-.48-.56-.21.09-.94-.55.66.84-2.41.15-1.41,1-.75-.77-1.22-.25-2.16-.9.04.2.34.37-.46.31-.03.06-.11.14-.16.19-.02,0-.03,0-.05-.01l.05.02s-.04.04.02,0c.19.08.35.17.42.28-.37.49-1.64.54-2.06.8-.48-.08.19-.24-.08-.44l-.63.39c-.08-.45-1.28-.69-.18-1l-1,.02c-.6-.23-1.41-.31-1.91-.11-.47-.09-1.19.52-.78.16l-1.57.3-.02-.11c-1.55-.04-3.21.76-4.99-.07-.53.11-1.07.24-1.95.1l-.16-.39c-.68.12-2.02-.43-2.32-.04-.7-1.06-3.27-.32-4.45-.55l-.06.51c-.82-.06-1.61.05-2.64.22l.04.45c-.89.33-2.25-.41-3.63-.43.1-.17.45-.11.69,0-1.6-1.08-3.53.56-4.99-.26-.38.14-.65.07-.91-.06.03,0,.07,0,.09-.02-.04,0-.09-.01-.15-.01-.16-.09-.33-.19-.51-.27.15.12.29.22.42.27-.29,0-.73.02-1.17.11l-.15-.49s-.06,0-.1,0c-.41-.2-.35.21-.15.58-.22.07-.43.15-.59.25-.29-.8-1.14.19-1.56-.67-.32.38-2.18.16-2.47.99,0-.11-.13-.17.1-.16-.47-.13-.95-.26-1.39-.05l-.16-.63-1.11.75c-.61-.42-.86-.65-.19-1.08-1.58.61-1.26.18-2.61.81l.09-.39c-.47-.02-1.25.46-1.5.11-.98-.83-5.13-.47-7.76-1.35.44,1.2-1.21-.6-1.37.29-.14-.28-.5-.46-.05-.68-1.38.18-2.03-.57-3.02.14-.14-.28.32-.39.19-.56-.11.06-.45.22-.58.05-.13-.17.21-.22.44-.33-1.4,0-1.59.83-1.74,1.63-.68-.4-1.04-.37-1.58.14-.23-.27-.63-.56.25-.62-.48-.06-2.96-.5-3.04.14-.14-.17-.68-.07-.81,0-1.09-.08-1.18-.14-2.26-.12l.29.12c-.46.75-.9.14-1.77.2l.03-.08c-1.96-.63-.87.23-2.8-.48l.08.48c-.23,1.02-1.71-.68-2.86-.33l.4.29c-.63.33-1.67-1.47-2.29-1.62-.13-.1.22-.14.41-.19-1.61-.67-.24.62-1.46.72-.21-.35.32-.85-.49-.94-.4-.29-2.42,1.01-3.51.31.24.27.47.54-.1.71-.87.06-2.31-1.08-3.12-.29-.11-.08-.15-.15-.15-.21-.67.19-2.16.26-2.57.71-.56-1.67-4.13.72-4.07-.81l-2.03.04.06-.15c-1.29-.13-1.77.23-2.24.59-.3-.11-.07-.25-.04-.33-1.89-.35-2.08-.29-3.7.44l-.15-.5c-.44.28-2.71-.83-4.59-.29.02-.06.06-.15.21-.22-2.12.54-4.95-1.48-5.8.31l-1.4.42c1.78.18-.3.78.42,1.09-.71.09-1.79-.58-.92-.66l.13.09c.36-.93-2.21-.38-2.13-1.02-3.52-.14-6.94-.88-10.24-1.11l.35.75-1.15-.11c-.3-.19-.39-.6.43-.52-.42-.44-1.39.26-1.42.42-1.6-.39.66-.81.16-.86h-.67s.15.11.15.11c-.55.27-.61.58-1.6.48-.62-.18-.31-.47-.55-.51,0-.05-.08-.08-.38-.04-.48-.06-.97-.1-1.48-.12l.59.58c-.67.28-1.4-.04-.72.62-.99-1.04-5.47-.32-6.09-.59-.9.46-1.79.49-2.91.52.29.1.49.74-.47.72.25-1.36-1.79-.45-2.67-1.32.76.55-2.72.46-1.53,1.24-.81-.01-.11-.49-.75-.73-1.86.79-4.04.16-6.35.48-.02.18.38.42-.1.71l-1.28-.8c-.45.11-.36,1.04-1.24.48.13.14.32.35.01.43-2.31-.29-4.68.05-7.06.48-2.4.42-4.78,1.04-7.16.8.68.19.29.32-.17.44.32,0,.09.42.21.64-.67-.07-1.33-.14-1.98-.24-.21.73-1.92.38-2.03,1.01l.56-.19c-.69.86,1.35,1.48,1.42,2.42.75-.99,2.73.72,3.91-.83.37.11-.2.37.03.54.27-.49.7-.69,1.56-.71l-.07.12c2.27-.64,3.27-.43,5.87-.47l-.24-.45c.56,0,.7.14.97.23.57-.79-1.57.13-1.07-.72.83.85,3.98-.35,4.58.72.88-.05-.29-.53.59-.58l.25.28.2-.39c.58.03.9.38.94.63-.14-.02-.4.09-.55.13.77.3,2.13-.25,2.4-.16l-.87-.13c1.21-.22,2.58-.28,3.95-.43.69-.08,1.37-.17,2.03-.31.63-.14,1.22-.3,1.77-.52l-.2-.2c1.7-.61,1.42.08,3.33-.29l-.07.06c.37-.25.87-.41,1.4-.42-.47.29.95.45.33.78,1.87-.56.91-.41,2.14-1.3l.31.36c.42-.35.45-.53,1.42-.66-.79.34.63.55-.24.99,2.04.75,3.01-.87,3.94.31.94-1.03-1.76-.57-1.24-.79-.44-.33.77-.77,1.41-.67.67.04,1.06,1.28,2.71,1.38-.16-.01-.18.06-.34.05.61.3,1.22-.28,1.96.19.44-.59.98.09,1.13-.69l-1.52.09c.86-.16,1.7-1.03,3.1-.5-.12.15-.54.34-.84.44.4.26.8-.11,1.22.16-.15.78-1.84.06-2.78.61.43.36,1.75-.47,1.26.36.7-1.05,1.62.24,2.76-.53l-.09.47c.18-.06.55-.27.88-.23l-.61.58c.92-.47,1.72.56,2.6.33-1.81-.09-.38-.6-1.14-.99,2.26-.5,1.23,1.32,3.74,1.24-.34.05-1.26-.36-.72-.55.47.13,1.09.35,1.37.61,1.66,0-.23-.5.49-.75.54.61.83-.19,1.56-.33l-.02.48c1.89.35.55-.99,2.25-.58l-.76.65.9-.15-.21.54c.99-.39,1.29-.27,2.23-.1-.21-.34.17-.87,1.01-.87.56.3-.34.45.85.41-.28.3-.6.67-1.1.21-.06.16-.28.3-.34.45.6.34,1.55.11,1.98.11-.17-.02-.36-.05-.46-.12l1.76-.63c.26.19.04.33-.18.47.35-.04.61-.26,1.12-.29-.15.39-.14.79-.87.96l1.67-.4c.1.17.83.49.61.63.91.25,2.28-.71,3.48-.38.07-.07.2-.14.46-.2,1.14.11,2.13.61,3.5.1l.74.72c1.06-.14-1-.91.77-1.14,1.25-.2.44.61.87.81.63-.34,1.74-1.04,2.86-.44-.38.12-.68.01-1.03.06ZM235.78,350.05c-.26.09-.77.38-.94.09.31-.54.52-.27.94-.09ZM255.59,349.67c-.2.15-.48.06-.8-.13.24-.03.51,0,.8.13ZM310.66,348.74s-.02.01-.03.02c-.56-.17-.36-.1.03-.02ZM311.82,348.92c.11-.07.1-.14.05-.2-.08.12-.34.14-.63.11.09.12.24.21.58.09ZM186.54,344.21l.22.14c-.52.11-.37,0-.22-.14Z"/>
    <path class="st0" d="M253.31,350.24c-.07-.08-.08-.17-.09-.27-.1.08-.11.17.09.27Z"/>
    <path class="st0" d="M214.64,350.03h-.04s-.04.05-.04.08l.08-.08Z"/>
    <path class="st0" d="M293.72,352.91c-.24-.08-.37-.17-.46-.26-.02.12.09.22.46.26Z"/>
    <path class="st0" d="M317.85,347.76l-.72.18c.35-.05.49.04.67.11-.02-.11-.18-.26.05-.29Z"/>
    <path class="st0" d="M324.54,350.05c.1-.07.23-.04.33-.11l-.06-.22c-.46.08-.76.3-.27.33Z"/>
    <path class="st0" d="M318.66,349.3c.09.4.55.23,1.06.1-.03,0-.06.01-.09,0,.1-.58-.43-.33-.96-.11Z"/>
    <path class="st0" d="M319.83,349.38c.16-.03.32-.06.48-.06.04-.23-.2-.03-.48.06Z"/>
    <path class="st0" d="M313.27,348.59c.25.09.13-.53.28-.37.25-.53-1.6.7-.28.37Z"/>
    <polygon class="st0" points="319.19 350.6 318.96 350.12 318.7 350.54 319.19 350.6"/>
    <path class="st0" d="M315.04,350.52l.84.09c-.02-.08.09-.14.21-.18-.52.01-1.08-.05-1.06.1Z"/>
    <path class="st0" d="M316.09,350.43c.27,0,.52-.03.67-.12-.14.02-.45.05-.67.12Z"/>
    <polygon class="st0" points="318.06 350.84 317.8 350.75 317.21 350.76 318.06 350.84"/>
    <path class="st0" d="M306.05,350.69l-.91.15c-.09.17.16.28.5.21.22-.12.56-.19.42-.35Z"/>
    <path class="st0" d="M308.84,352.02c-.25-.1-.27-.21-.41-.37l-.02.62.43-.25Z"/>
    <path class="st0" d="M306.16,352.2c-.09.17-1.33.5-.17.46.09-.17,1.01-.32.17-.46Z"/>
    <polygon class="st0" points="292.37 351.15 292.6 351.16 292.6 350.14 292.37 351.15"/>
    <path class="st0" d="M280.08,352.99c1.07.31.3-.61,1.26-.25.27-.22-.79-.3-.51-.49-.67.21-1.01.05-.75.74Z"/>
    <path class="st0" d="M280.82,352.26c.11-.03.22-.08.34-.13-.19.05-.29.1-.34.13Z"/>
    <polygon class="st0" points="143.89 348.04 143.24 347.91 143.69 348.2 143.89 348.04"/>
    <path class="st0" d="M142.77,348.94l-.21-.63-.33.62c.14-.04.42-.12.54.01Z"/>
    <path class="st0" d="M237.65,351.44l.06-.15c-.1-.17-.26-.19-.59-.23l.53.39Z"/>
    <polygon class="st0" points="228.26 350.58 228.42 350.6 228.13 350 228.26 350.58"/>
    <path class="st0" d="M220.28,351.16c.32.03.71-.09,1.04-.06-.71.09-1.1-.67-1.04.06Z"/>
  </g>
</svg>